<svg width="168" height="168" viewBox="0 0 168 168" fill="none" xmlns="http://www.w3.org/2000/svg">
<circle cx="83.5001" cy="84.5" r="60.5" fill="url(#paint0_linear_1182_12194)"/>
<path d="M95.1923 76.2092C95.1954 76.049 95.1892 75.8887 95.1923 75.7285C96.5456 76.0396 97.8834 76.5343 99.2259 76.9294C102.284 77.827 105.367 78.6561 108.447 79.4758V93.115C107.674 93.0745 106.859 93.1678 106.091 93.1196C103.77 92.9718 99.1263 91.2545 96.7525 90.4518C96.4819 90.3601 95.3914 90.0521 95.281 89.9074L95.1939 76.8827L95.2887 76.8345L95.1939 76.7863C95.1954 76.6261 95.1876 76.4658 95.1939 76.3056L95.2887 76.2574L95.1939 76.2092H95.1923Z" fill="#D42129"/>
<path d="M113.731 84.3736C114.408 84.008 115.26 83.3469 115.845 82.79C116.125 82.524 116.41 82.2533 116.589 81.9002L116.558 77.5478L121.896 75.8242V89.7044C121.896 89.9611 121.271 90.2131 121.058 90.3064C119.216 91.1013 116.569 91.9242 114.618 92.5107C113.254 92.9213 112.204 93.1298 110.756 93.1142L109.891 93.0193V87.5438L113.636 84.5664C113.7 84.5353 113.724 84.3798 113.733 84.3751L113.731 84.3736Z" fill="#9C2821"/>
<path d="M69.5458 116.742C70.0451 118.534 72.1405 119.625 73.7754 120.247C79.702 122.502 87.9107 122.21 93.9447 120.44C95.4909 119.986 97.6485 119.268 98.6518 117.943C98.9396 117.564 99.0345 117.128 99.2849 116.745C100.845 117.322 102.357 118.475 100.957 120.154C99.862 121.466 96.4087 122.582 94.7334 122.958C88.0507 124.458 75.8847 124.5 69.6096 121.628C68.3123 121.036 66.8361 120.286 67.2872 118.565C67.4489 117.946 68.9111 116.913 69.5458 116.742Z" fill="#373940"/>
<path d="M71.2755 115.109C71.2755 114.609 71.1371 114.438 71.3875 113.923C72.2089 112.234 76.2518 111.032 77.9987 110.689C78.1278 112.388 79.338 113.041 80.8049 113.503C81.2326 113.639 81.7118 113.67 82.1286 113.765C83.1335 113.99 84.1758 114.241 85.2507 114.34C87.3382 114.533 88.8953 114.119 90.7635 115.358C91.4402 115.807 92.3424 116.627 92.1713 117.515C92.0951 117.621 91.3686 117.728 91.1742 117.767C87.3335 118.539 82.1318 118.505 78.2678 117.864C75.8038 117.455 73.1266 116.879 71.274 115.109H71.2755Z" fill="#D42129"/>
<path d="M124.199 90.6152C124.22 90.7786 124.182 90.9186 124.126 91.0695C123.542 92.6608 118.345 93.9877 116.729 94.3346C116.194 94.4497 115.629 94.5383 115.08 94.5586C115.057 94.8215 114.942 95.1761 114.826 95.4079C114.066 96.9308 111.44 98.869 109.65 98.8752C104.106 98.8939 97.8211 97.7506 94.3818 93.0092C93.9213 92.3746 93.2198 91.3697 93.2229 90.6152C95.2747 92.1132 97.9907 92.8148 100.458 93.3701C105.955 94.6099 110.511 94.6721 116.04 93.5475C118.81 92.9828 121.875 92.2517 124.2 90.6152H124.199Z" fill="#373940"/>
<path d="M71.2755 115.11C73.1282 116.88 75.8053 117.456 78.2693 117.865C82.1333 118.506 87.3351 118.541 91.1757 117.768C91.3702 117.729 92.0966 117.622 92.1728 117.516C92.3439 116.628 91.4417 115.807 90.7651 115.359C88.8968 114.121 87.3397 114.534 85.2522 114.341C84.1757 114.242 83.1335 113.991 82.1302 113.766C84.9333 113.879 90.1522 114.446 90.583 110.596C92.3066 111.092 96.4724 112.325 97.2284 114.083C97.6266 115.009 97.6997 116.547 96.9702 117.319C95.1984 119.19 88.8579 119.99 86.3131 120.109C82.9671 120.267 73.8204 119.808 71.6628 116.981C71.1339 116.287 71.277 115.941 71.277 115.11H71.2755Z" fill="#9C2821"/>
<path d="M85.9726 95.8034C86.0566 96.2514 86.3848 96.435 86.5528 96.9047C86.85 97.7385 87.0413 98.5692 86.262 99.165C86.0846 97.3138 83.532 96.7041 82.5317 98.2674C81.8426 99.3438 82.3715 100.318 83.1882 101.086C84.2351 102.069 85.4282 102.354 86.4066 101.088L86.5513 101.326L87.0273 110.642C86.9044 111.283 84.9117 111.804 84.3408 112.037C83.1151 112.037 81.6762 112.029 80.564 111.445C79.5653 110.919 79.8017 110.118 79.8562 109.138C79.9137 108.108 80.1253 107.066 80.2093 106.034C80.4037 103.659 80.4348 100.993 80.8128 98.6656C81.2095 96.2203 83.6657 94.6912 85.9742 95.8065L85.9726 95.8034Z" fill="#D42129"/>
<path d="M85.1062 73.4246L85.7782 93.8832C84.6116 93.6981 83.4527 93.7355 82.3218 94.0746L83.1867 73.3281C83.8245 73.5723 84.4404 73.577 85.1062 73.4246Z" fill="#373940"/>
<path d="M110.274 100.509C110.345 101.062 109.959 101.597 109.435 101.736C109.252 101.784 109.057 101.723 108.898 101.759C108.825 101.776 108.838 101.93 108.766 101.947C108.062 102.117 106.54 102.056 105.711 102.142C100.514 102.682 95.306 103.184 90.1027 103.677L89.9098 100.412L110.272 100.507L110.274 100.509Z" fill="#373940"/>
<path d="M78.6722 100.412L78.4809 103.582C75.3558 103.332 72.2369 102.835 69.1149 102.526C65.926 102.21 62.7231 102.037 59.5342 101.734C58.7751 101.558 58.4313 101.078 58.2136 100.365L78.6738 100.412H78.6722Z" fill="#373940"/>
<path d="M114.114 76.6901L109.181 78.2208L97.2097 74.8172L101.965 73.3379C105.908 74.8032 110.073 75.5468 114.112 76.6917L114.114 76.6901Z" fill="#C54130"/>
<path d="M64.3535 76.0149C64.3395 76.1736 64.2073 76.1596 64.1155 76.2C62.7668 76.7414 61.1132 77.0198 59.7117 77.4569C56.1012 76.3727 52.2544 75.6851 48.6844 74.548C48.5786 74.5216 48.3935 74.5216 48.4199 74.3894L53.2592 73.1465C56.2739 74.1514 59.4084 74.7207 62.4759 75.5405C63.0981 75.7131 63.7188 75.99 64.3535 76.0165V76.0149Z" fill="#FDBE3E"/>
<path d="M109.889 79.57L115.365 77.8418V81.7322L112.963 83.798C111.893 84.3954 110.975 85.5994 109.889 86.1034V79.5716V79.57Z" fill="#9C2821"/>
<path d="M84.3391 112.037C84.91 111.803 86.9026 111.282 87.0255 110.641L86.5495 101.325L86.4048 101.087C85.4264 102.353 84.2333 102.069 83.1864 101.085C84.5771 101.929 86.4126 100.753 86.2602 99.1643C87.0395 98.567 86.8497 97.7378 86.5511 96.9041C86.3846 96.4358 86.0548 96.2507 85.9708 95.8027C86.9913 96.2958 87.7224 97.3474 87.8655 98.4705L88.844 110.347C88.5997 112.044 85.6037 112.035 84.3375 112.037H84.3391Z" fill="#9C2821"/>
<path d="M120.07 74.9583C119.912 74.9489 119.761 74.9816 119.61 75.0267C118.932 75.2336 116.706 76.0829 116.188 76.0114C115.596 75.9289 114.364 75.3689 113.655 75.1791C110.953 74.4542 108.186 73.9471 105.468 73.2798L104.029 72.8474L107.044 72.082C111.124 73.146 115.727 73.552 119.737 74.7638C119.866 74.8027 120.036 74.7716 120.07 74.9583Z" fill="#C54130"/>
<path d="M70.2239 74.2815L66.5342 75.3393C63.5988 74.2675 60.5313 73.5146 57.4637 72.8659C57.0282 72.7726 56.3002 72.7866 55.8771 72.6544C55.7977 72.6279 55.7588 72.4553 55.7184 72.3635L58.9057 71.623C62.4368 72.589 66.5217 72.9982 69.9735 74.1088C70.0793 74.1353 70.1975 74.1353 70.2239 74.2815Z" fill="#FDBE3E"/>
<path d="M123.539 86.5137C123.525 83.0355 123.525 79.5448 123.525 76.0542C123.525 75.5782 123.684 75.2344 123.472 74.679C123.196 73.9262 122.48 73.8857 121.872 73.7006C121.184 73.503 120.271 73.1982 119.398 72.9866C118.009 72.6553 116.449 72.2726 115.062 72.0346C114.73 71.9817 114.229 72.061 113.898 71.9817C113.857 71.9677 113.607 71.7437 113.249 71.6379C111.199 71.0686 108.939 70.871 106.862 70.3422C103.239 71.3346 99.5371 72.2197 95.9531 73.3708C94.8688 73.7286 93.6259 73.9262 93.4673 75.3013V86.8979C92.2244 87.4393 90.77 88.6573 91.0873 90.1646C91.2988 91.1835 93.0442 93.9337 93.7582 94.7924C94.6044 95.8377 95.6357 96.7104 96.7339 97.4773L99.1279 98.787H89.7137C89.6608 98.2706 89.5551 97.7417 89.3824 97.2533C88.9188 95.9839 88.3511 95.8782 88.1784 94.3179C87.4255 87.6399 87.5842 80.6322 87.2264 73.8484C87.1859 73.1079 86.948 72.327 87.0413 71.5602C87.1346 71.3082 89.3948 70.7528 89.8708 70.5553C99.1668 66.8266 102.591 55.1382 96.2439 47.1504C88.9188 37.9602 74.4257 40.3542 70.3408 51.3022C67.4584 59.0379 71.4515 67.6713 79.0551 70.5942C79.7302 70.8462 80.9202 71.0313 81.4351 71.2817C81.5937 71.3735 81.6855 71.4933 81.726 71.6644C81.8317 72.1264 81.7524 73.2386 81.7524 73.7675C81.6855 76.4913 81.5019 79.2819 81.3557 82.0182C81.1582 85.9055 80.9979 90.163 80.5888 94.0239C80.4037 95.7957 79.9666 95.5577 79.3195 96.8939C79.0551 97.4633 78.8295 98.1493 78.856 98.7855H68.1988C65.5015 100.002 56.4839 100.227 56.4839 100.227C56.4964 103.639 59.7755 103.23 62.1959 103.494C67.5517 104.076 72.906 104.684 78.2882 105.121L77.9973 109.155C75.0215 109.698 70.6722 110.755 69.6144 113.982C69.5475 114.193 69.5211 114.682 69.4293 114.801C69.3624 114.867 68.6095 115.184 68.4244 115.291C66.3493 116.508 64.8015 117.83 65.2511 120.515C65.5948 122.604 68.7417 123.967 70.5135 124.575C77.6146 126.995 87.2279 126.981 94.5391 125.553C97.0653 125.063 102.499 123.597 103.386 120.859C104.179 118.385 102.486 116.628 100.543 115.477C100.041 115.186 99.4717 114.96 98.9568 114.71C98.8106 111.655 95.1224 110.306 92.6226 109.565C92.2648 109.472 90.7451 109.222 90.6128 109.037C90.2037 107.885 90.4153 106.604 90.0979 105.414C94.0786 105.003 98.0717 104.712 102.065 104.356C102.541 104.317 103.043 104.104 103.507 104.065C105.596 103.88 109.88 104.263 111.334 102.57C111.837 101.988 112.022 101.089 112.101 100.335C115.051 99.8448 118.171 99.1184 120.683 97.4259C122.799 95.9715 125.364 92.9039 126.171 90.4306C126.779 88.553 124.942 87.3102 123.539 86.5168V86.5137ZM121.9 75.8302V89.701C121.9 89.9655 121.265 90.2159 121.053 90.3093C119.216 91.1026 116.57 91.9224 114.614 92.5042C113.251 92.9148 112.207 93.1248 110.753 93.1124H109.787C109.787 91.2613 109.801 89.3961 109.787 87.545H109.892L113.634 84.5693C113.7 84.5288 113.727 84.3702 113.727 84.3702C114.402 83.9999 115.261 83.3388 115.842 82.7835C116.119 82.519 116.41 82.2546 116.583 81.8968L116.556 77.5459L121.898 75.827L121.9 75.8302ZM109.788 86.1964C109.802 84.0668 109.802 81.9388 109.788 79.7968L109.894 79.5728L115.368 77.8399V81.7273L112.962 83.8039C111.89 84.3997 110.978 85.6022 109.894 86.1046C109.853 86.1186 109.827 86.1699 109.788 86.1979V86.1964ZM107.05 72.0875C111.123 73.1453 115.724 73.5559 119.744 74.7584C119.864 74.7988 120.035 74.7724 120.075 74.9575C119.916 74.9435 119.758 74.9839 119.612 75.0228C118.938 75.2344 116.703 76.0806 116.188 76.0153C115.594 75.9359 114.363 75.3666 113.662 75.1815C110.952 74.4535 108.188 73.951 105.464 73.2775L104.036 72.8419L107.05 72.0875ZM101.973 73.3304C105.913 74.7988 110.079 75.5393 114.111 76.6888L109.178 78.2226L97.2115 74.8113L101.972 73.3304H101.973ZM95.1893 75.7244C96.5504 76.0417 97.8866 76.5317 99.2213 76.9284C102.289 77.8275 105.37 78.6613 108.45 79.481V93.1139C107.671 93.075 106.864 93.1668 106.083 93.1139C103.768 92.9693 99.1279 91.2488 96.7479 90.4555C96.4835 90.3622 95.3853 90.0448 95.2795 89.9002L95.1877 76.8755V75.7244H95.1893ZM73.9668 64.3004C70.4357 59.6057 70.4622 53.021 74.166 48.4073C78.926 42.4697 87.6402 41.8226 93.2728 46.9124C101.67 54.4895 96.7106 68.7959 85.5899 69.4835C84.9024 69.5239 83.9768 69.5239 83.2893 69.4835C79.5606 69.2719 76.1493 67.2093 73.9668 64.3004ZM83.1835 73.3319C83.8322 73.5699 84.4388 73.5839 85.114 73.4253L85.7751 93.8808C84.6115 93.6957 83.4604 93.7362 82.3233 94.0799L83.1835 73.3335V73.3319ZM79.8515 109.139C79.9168 108.108 80.1284 107.063 80.2093 106.031C80.4068 103.651 80.4333 100.993 80.8175 98.6657C81.2142 96.2188 83.6595 94.685 85.9742 95.8097C86.993 96.2997 87.7195 97.3435 87.8657 98.4682L88.8442 110.342C88.6062 112.048 85.6055 112.034 84.3346 112.034C83.0637 112.034 81.6762 112.034 80.5671 111.44C79.5622 110.923 79.8002 110.118 79.8531 109.139H79.8515ZM69.1151 102.528C65.9277 102.211 62.728 102.038 59.5282 101.735C58.7753 101.562 58.43 101.086 58.2184 100.372L78.674 100.411L78.4764 103.584C75.3559 103.332 72.2355 102.844 69.1151 102.527V102.528ZM98.6551 117.945C98.9459 117.563 99.0393 117.125 99.2897 116.741C100.85 117.323 102.357 118.474 100.956 120.153C99.8575 121.462 96.4073 122.585 94.7273 122.956C88.0493 124.463 75.8848 124.503 69.6035 121.633C68.3077 121.038 66.8393 120.285 67.2888 118.566C67.4475 117.945 68.9159 116.912 69.5506 116.741C70.0406 118.539 72.1422 119.624 73.7817 120.246C79.7053 122.508 87.903 122.217 93.9464 120.445C95.4942 119.981 97.6486 119.267 98.6535 117.945H98.6551ZM90.5895 110.594C92.3084 111.096 96.4742 112.327 97.2271 114.084C97.6237 115.01 97.7031 116.544 96.9766 117.325C95.2048 119.19 88.8582 119.995 86.3195 120.115C82.9735 120.274 73.8237 119.81 71.6693 116.981C71.1404 116.293 71.2851 115.935 71.2851 115.116C71.2711 114.918 71.2446 114.772 71.2446 114.64C71.2306 114.546 71.2306 114.467 71.2586 114.375C71.2446 114.336 71.2586 114.296 71.2726 114.243C71.2866 114.15 71.3395 114.044 71.3924 113.926C72.2122 112.233 76.2582 111.029 78.0035 110.685C78.1357 112.392 79.3382 113.039 80.8066 113.503C81.2422 113.635 81.7182 113.675 82.1288 113.767C84.9319 113.887 90.1555 114.442 90.5911 110.594H90.5895ZM109.432 101.735C109.261 101.788 109.062 101.721 108.903 101.761C108.824 101.775 108.836 101.934 108.771 101.946C108.057 102.119 106.535 102.052 105.717 102.145C100.52 102.688 95.3106 103.191 90.1011 103.679L89.916 100.413L110.28 100.506C110.347 101.061 109.962 101.604 109.434 101.736L109.432 101.735ZM124.123 91.0777C123.541 92.6644 118.344 93.9866 116.731 94.3444C116.202 94.4502 115.634 94.5435 115.077 94.5699C115.063 94.8219 114.945 95.1782 114.827 95.4162C114.072 96.9375 111.442 98.8804 109.656 98.8804C104.103 98.9068 97.8213 97.7557 94.3835 93.0097C93.9199 92.375 93.22 91.3702 93.22 90.6157C95.2826 92.123 97.9939 92.8246 100.453 93.3799C105.954 94.6104 110.516 94.6757 116.043 93.5526C118.807 92.9833 121.875 92.2568 124.202 90.6173C124.228 90.7899 124.188 90.9206 124.123 91.0793V91.0777Z" fill="#28282F"/>
<path d="M60.7569 78.7242C60.5982 78.7771 60.2405 78.9093 60.228 78.9622V92.7273C60.0958 92.7133 60.1347 92.5827 60.1347 92.4893C60.0554 91.8547 60.1347 90.9944 60.1347 90.3209V90.2275C60.1222 88.7327 60.1347 87.2129 60.1347 85.718V81.4869L60.1222 78.8549L60.7569 78.7227V78.7242Z" fill="#FDBE3E"/>
<path d="M109.889 86.1025C109.86 86.1165 109.83 86.1756 109.793 86.1989C109.797 84.0678 109.793 81.9336 109.788 79.8025L109.889 79.5723V86.104V86.1025Z" fill="#C54130"/>
<path d="M109.889 87.5426V93.0181L110.754 93.113C110.435 93.1099 110.112 93.1161 109.793 93.113C109.793 91.2572 109.796 89.3968 109.793 87.541H109.889V87.5426Z" fill="#C54130"/>
<path d="M67.4348 76.5973V79.8639C67.3555 78.9244 67.4224 77.9459 67.343 77.0204C67.329 76.8213 67.329 76.7824 67.1439 76.689C67.2497 76.6626 67.343 76.6361 67.4348 76.5957V76.5973Z" fill="#D58D21"/>
<path d="M46.1066 75.6309V77.8397C45.9215 77.1397 45.9744 76.3184 46.1066 75.6309Z" fill="#373940"/>
<path d="M46.1067 84.6621V85.7199C45.9481 85.4959 45.9481 84.9001 46.1067 84.6621Z" fill="#373940"/>
<path d="M46.1067 83.6055V84.3724C45.9481 84.2277 45.9481 83.7517 46.1067 83.6055Z" fill="#373940"/>
<path d="M60.7041 92.7276C60.6108 92.7276 60.519 92.7416 60.4272 92.7276C60.4397 92.583 60.6917 92.583 60.7041 92.7276Z" fill="#FDBE3E"/>
<path d="M61.4834 92.7276C61.3776 92.7416 61.2858 92.7276 61.1925 92.7276C61.2065 92.583 61.4709 92.583 61.4834 92.7276Z" fill="#FDBE3E"/>
<path d="M60.1348 85.5215V85.7206L60.0695 85.6413L60.1348 85.5215Z" fill="#373940"/>
<path d="M95.1923 76.8797C95.1923 76.847 95.1923 76.8159 95.1923 76.7832L95.2872 76.8314L95.1923 76.8797Z" fill="#9C2821"/>
<path d="M95.1923 76.3054C95.1923 76.2728 95.1923 76.2417 95.1923 76.209L95.2872 76.2572L95.1923 76.3054Z" fill="#9C2821"/>
<path d="M86.2603 99.1654C86.4127 100.754 84.5771 101.93 83.1865 101.086C82.3698 100.32 81.8409 99.3458 82.53 98.2678C83.5303 96.7045 86.0829 97.3143 86.2603 99.1654ZM84.7887 99.9992C85.2274 99.4236 84.8805 98.3472 84.1105 98.4001C82.7929 98.4918 83.1118 100.329 84.3827 100.218C84.4745 100.211 84.7342 100.071 84.7887 99.9992Z" fill="#28282F"/>
<path d="M84.7889 99.9994C84.7344 100.071 84.4746 100.211 84.3829 100.219C83.112 100.329 82.7931 98.4905 84.1106 98.4003C84.8806 98.3474 85.2275 99.4239 84.7889 99.9994Z" fill="#373940"/>
<path d="M84.4184 70.0102C91.8797 70.0102 97.9284 63.9616 97.9284 56.5002C97.9284 49.0389 91.8797 42.9902 84.4184 42.9902C76.957 42.9902 70.9084 49.0389 70.9084 56.5002C70.9084 63.9616 76.957 70.0102 84.4184 70.0102Z" fill="#D42129"/>
<path d="M83.1041 45.3062L80.9932 46.0342C76.9363 47.7594 73.9092 51.4896 72.8157 55.7362C72.6212 53.1774 73.7194 50.6138 75.3792 48.7067C76.549 47.3611 79.3614 45.3047 81.197 45.3047H83.1057L83.1041 45.3062Z" fill="#FAF3EA"/>
<path d="M80.5202 66.9435C80.5202 66.9435 83.9253 65.2168 90.8647 55.2348L84.1836 53.883C87.8547 49.4839 90.1071 47.051 91.2489 46.0586C91.2489 46.0586 81.2887 48.591 77.588 58.013L83.2005 59.2373L80.5202 66.9435Z" fill="white"/>
<path d="M66.3898 82.0702C66.4831 82.0298 66.5624 82.0049 66.6418 81.9769V81.9629C66.5624 82.0033 66.4831 82.0282 66.3898 82.0687V82.0702Z" fill="#FAF3EA"/>
<path d="M76.5583 88.1948C76.479 88.089 75.7385 87.3485 75.6187 87.2552C75.2221 86.9239 74.5345 86.647 74.0585 86.4214L74.0181 74.2834C73.7272 73.6223 73.2776 73.1323 72.5636 72.9472L58.7456 69.959C54.6327 71.2548 49.9521 71.9034 45.9201 73.2785C44.9416 73.6099 44.4796 73.781 44.3738 74.9056L44.3878 86.3296C42.1929 87.4808 40.8038 88.6179 41.8632 91.2623C43.4763 95.2694 46.7958 97.7412 50.775 99.0774C52.6121 99.6856 54.5425 100.029 56.487 100.229C56.487 100.229 65.5045 100.005 68.2018 98.7865L71.2165 97.4239C73.4114 96.0083 75.3823 93.9332 76.4525 91.5128C76.8756 90.5732 77.2863 89.0923 76.5583 88.1932V88.1948ZM60.1347 90.3243V90.231C60.1223 88.7361 60.1347 87.2163 60.1347 85.7214L60.0694 85.6421L60.1347 85.5223V81.4888L60.1223 78.8568L60.7569 78.7245C60.7834 78.7245 60.7958 78.7121 60.8098 78.7121C61.219 78.5534 61.7478 78.3543 62.1321 78.2361C62.5941 78.0774 63.1245 77.9841 63.5865 77.8394V82.111C63.5865 82.1374 63.8105 82.5341 63.8509 82.5605C64.0096 82.6663 64.3005 82.6539 64.4856 82.6399C64.8558 82.601 65.5309 82.3879 66.1252 82.1639C66.2185 82.1234 66.3103 82.0985 66.3896 82.0705C66.483 82.0301 66.5623 82.0052 66.6416 81.9648C66.8003 81.9119 66.945 81.859 67.0507 81.8201C67.6994 81.5821 68.3994 81.4888 68.4927 80.683C68.5721 80.0219 68.373 76.4114 68.5067 76.2263L72.3287 75.0488V89.4081C72.2229 89.5668 72.0518 89.5932 71.9056 89.6601C69.8165 90.5996 65.7565 91.7756 63.4698 92.3714C62.7698 92.5565 62.2005 92.6763 61.4865 92.7292C61.3807 92.7432 61.289 92.7292 61.1956 92.7292C61.037 92.7292 60.8643 92.7432 60.7072 92.7292C60.6138 92.7292 60.5221 92.7432 60.4303 92.7292H60.2312C60.0989 92.7152 60.1378 92.5845 60.1378 92.4912C60.0585 91.8565 60.1378 90.9963 60.1378 90.3228L60.1347 90.3243ZM67.3416 80.487C67.1161 80.6861 65.1732 81.1092 64.7501 81.201V77.4583C65.5558 77.2468 66.3367 76.903 67.1425 76.6914C67.2483 76.665 67.3416 76.6385 67.4334 76.5981V79.8648C67.4474 80.0499 67.4738 80.3672 67.3416 80.4854V80.487ZM58.9058 71.6281C62.437 72.5941 66.5218 73.0032 69.9736 74.1139C70.0794 74.1403 70.1976 74.1403 70.2241 74.2865L66.5343 75.3443C63.5989 74.2725 60.5314 73.5197 57.4638 72.871C57.0283 72.7777 56.3003 72.7916 55.8772 72.6594C55.7978 72.633 55.7589 72.4603 55.7185 72.3685L58.9058 71.6281ZM53.2592 73.1494C56.2738 74.1543 59.4083 74.7236 62.4758 75.5434C63.0981 75.7161 63.7187 75.993 64.3534 76.0194C64.3394 76.1781 64.2072 76.1641 64.1154 76.2045C62.7667 76.7459 61.1132 77.0243 59.7116 77.4614C56.1012 76.3772 52.2543 75.6897 48.6843 74.5525C48.5785 74.5261 48.3934 74.5261 48.4198 74.3939L53.2592 73.151V73.1494ZM46.1581 75.2525L58.7861 78.7572V92.7339H56.3407C53.5501 91.8472 50.7081 91.1736 47.9174 90.301C47.5736 90.1952 46.1721 89.7985 46.0663 89.5605C46.0398 88.2912 46.1067 87.0079 46.1067 85.7261C45.9481 85.5021 45.9481 84.9063 46.1067 84.6683V84.3774C45.9481 84.2328 45.9481 83.7568 46.1067 83.6105V77.8456C45.9216 77.1456 45.9745 76.3243 46.1067 75.6368C46.1332 75.531 46.0538 75.3194 46.1596 75.2541L46.1581 75.2525ZM73.3834 91.9125C71.5852 92.9314 69.3638 93.4339 67.3541 93.9099C66.8127 95.6428 64.9881 97.1765 63.2816 97.7583C60.4116 98.7508 57.173 98.6574 54.1583 98.1814C49.5305 97.4534 44.8498 95.0999 43.3021 90.4068C43.2492 90.2481 43.1963 90.1159 43.2227 89.9448C43.3954 89.9712 43.3425 90.1968 43.4872 90.3414C45.4581 92.2454 54.0914 93.8461 56.9085 93.9908C62.6609 94.2676 69.4836 93.1974 74.575 90.5125L75.2096 89.8514C75.1832 90.8703 74.1907 91.4785 73.385 91.9141L73.3834 91.9125Z" fill="#28282F"/>
<path d="M58.7862 78.7512V92.7278H56.3409C53.5502 91.8412 50.7082 91.1676 47.9175 90.2949C47.5738 90.1892 46.1722 89.7925 46.0664 89.5545C46.04 88.2852 46.1069 87.0018 46.1069 85.72V75.6307C46.1333 75.5249 46.054 75.3134 46.1598 75.248L58.7878 78.7527L58.7862 78.7512Z" fill="#FDBE3E"/>
<path d="M46.1067 75.6309V77.8397C45.9216 77.1397 45.9745 76.3184 46.1067 75.6309Z" fill="#28282F"/>
<path d="M46.1068 83.6055V84.3724C45.9481 84.2277 45.9481 83.7517 46.1068 83.6055Z" fill="#28282F"/>
<path d="M46.1068 84.6621V85.7199C45.9481 85.4959 45.9481 84.9001 46.1068 84.6621Z" fill="#28282F"/>
<path d="M72.3272 75.0488V89.4082C72.2214 89.5668 72.0503 89.5933 71.9041 89.6602C69.815 90.5997 65.755 91.7757 63.4683 92.3715C62.7683 92.5566 62.199 92.6764 61.485 92.7293C61.4725 92.5846 61.2081 92.5846 61.1941 92.7293C61.0354 92.7293 60.8627 92.7433 60.7056 92.7293C60.6916 92.5846 60.4412 92.5846 60.4287 92.7293H60.2296V78.9642C60.2436 78.9113 60.5998 78.7791 60.7585 78.7262C60.785 78.7262 60.7974 78.7137 60.8114 78.7137C61.2205 78.555 61.7494 78.3559 62.1336 78.2377C62.5956 78.0791 63.1261 77.9857 63.5881 77.8411V82.1126C63.5881 82.1391 63.8121 82.5357 63.8525 82.5622C64.0112 82.6679 64.3021 82.6555 64.4872 82.6415C64.8574 82.6026 65.5325 82.3895 66.1267 82.1655C66.2201 82.1251 66.3119 82.1002 66.3912 82.0722C66.4845 82.0317 66.5639 82.0068 66.6432 81.9788C66.8019 81.9259 66.9465 81.8606 67.0523 81.8202C67.701 81.5822 68.4009 81.4888 68.4943 80.6831C68.5736 80.0219 68.3745 76.4115 68.5083 76.2264L72.3303 75.0488H72.3272Z" fill="#D58D21"/>
<path d="M60.7042 92.7276C60.6109 92.7276 60.5191 92.7416 60.4273 92.7276C60.4398 92.583 60.6918 92.583 60.7042 92.7276Z" fill="#D58D21"/>
<path d="M60.7571 78.7258C60.5985 78.7787 60.2407 78.9109 60.2282 78.9638V92.7289C60.096 92.7149 60.1349 92.5842 60.1349 92.4909C60.0556 91.8562 60.1349 90.996 60.1349 90.3224V90.2291C60.1225 88.7342 60.1349 87.2144 60.1349 85.7195L60.0696 85.6402L60.1349 85.5204V81.4869L60.1225 78.8549L60.7571 78.7227V78.7258Z" fill="#D58D21"/>
<path d="M61.4834 92.7276C61.3776 92.7416 61.2858 92.7276 61.1925 92.7276C61.2065 92.583 61.4709 92.583 61.4834 92.7276Z" fill="#D58D21"/>
<path d="M67.0509 81.8184C66.9451 81.8588 66.8004 81.9241 66.6418 81.977C66.5624 82.0035 66.4831 82.0299 66.3898 82.0704C66.4831 82.0299 66.5624 82.005 66.6418 81.9646C66.8004 81.9117 66.9451 81.8588 67.0509 81.8199V81.8184Z" fill="#28282F"/>
<path d="M64.3535 76.0149C64.3395 76.1736 64.2073 76.1596 64.1155 76.2C62.7669 76.7414 61.1133 77.0198 59.7117 77.4569C56.1013 76.3727 52.2544 75.6851 48.6844 74.548C48.5786 74.5216 48.3935 74.5216 48.42 74.3894L53.2593 73.1465C56.274 74.1514 59.4084 74.7207 62.476 75.5405C63.0982 75.7131 63.7189 75.99 64.3535 76.0165V76.0149Z" fill="#FDBE3E"/>
<path d="M67.3416 80.485C67.116 80.6841 65.1731 81.1072 64.75 81.199V77.4563C65.5558 77.2448 66.3367 76.901 67.1424 76.6895C67.3276 76.7828 67.3276 76.8217 67.3416 77.0208C67.4209 77.9463 67.354 78.9248 67.4333 79.8643C67.4473 80.0494 67.4738 80.3668 67.3416 80.485Z" fill="#D58D21"/>
<path d="M67.4349 76.5973V79.8639C67.3555 78.9244 67.4224 77.9459 67.3431 77.0204C67.3291 76.8213 67.3291 76.7824 67.144 76.689C67.2498 76.6626 67.3431 76.6361 67.4349 76.5957V76.5973Z" fill="#D58D21"/>
<path d="M70.224 74.2815L66.5342 75.3393C63.5989 74.2675 60.5313 73.5146 57.4638 72.8659C57.0282 72.7726 56.3002 72.7866 55.8771 72.6544C55.7978 72.6279 55.7589 72.4553 55.7184 72.3635L58.9058 71.623C62.4369 72.589 66.5218 72.9982 69.9736 74.1088C70.0793 74.1353 70.1976 74.1353 70.224 74.2815Z" fill="#FDBE3E"/>
<path d="M75.2096 89.8457C75.1832 90.8646 74.1908 91.4728 73.385 91.9084C71.5868 92.9273 69.3654 93.4297 67.3556 93.9057C66.8143 95.6386 64.9896 97.1724 63.2832 97.7541C60.4132 98.7466 57.1745 98.6533 54.1599 98.1773C49.5321 97.4493 44.8514 95.0957 43.3037 90.4026C43.2508 90.2439 43.1979 90.1117 43.2243 89.9406C43.397 89.967 43.3441 90.1926 43.4888 90.3373C45.4596 92.2413 54.093 93.8419 56.9101 93.9866C62.6625 94.2635 69.4852 93.1933 74.5765 90.5084L75.2112 89.8473L75.2096 89.8457Z" fill="#373940"/>
<path d="M115.933 82.0722C116.026 82.0317 116.105 82.0068 116.185 81.9788V81.9648C116.105 82.0053 116.026 82.0302 115.933 82.0706V82.0722Z" fill="#D58D21"/>
<path d="M126.101 88.1948C126.022 88.089 125.281 87.3485 125.162 87.2552C124.765 86.9239 124.077 86.647 123.601 86.4214L123.561 74.2834C123.27 73.6223 122.82 73.1323 122.106 72.9472L108.288 69.959C104.176 71.2548 99.4949 71.9034 95.4629 73.2785C94.4845 73.6099 94.0225 73.781 93.9167 74.9056L93.9307 86.3296C91.7358 87.4808 90.3467 88.6179 91.406 91.2623C93.0191 95.2694 96.3387 97.7412 100.318 99.0774C102.155 99.6856 104.085 100.029 106.03 100.229C106.03 100.229 115.047 100.005 117.745 98.7865L120.759 97.4239C122.954 96.0083 124.925 93.9332 125.995 91.5128C126.418 90.5732 126.829 89.0923 126.101 88.1932V88.1948ZM109.678 90.3243V90.231C109.665 88.7361 109.678 87.2163 109.678 85.7214L109.612 85.6421L109.678 85.5223V81.4888L109.665 78.8568L110.3 78.7245C110.326 78.7245 110.339 78.7121 110.353 78.7121C110.762 78.5534 111.291 78.3543 111.675 78.2361C112.137 78.0774 112.667 77.9841 113.129 77.8394V82.111C113.129 82.1374 113.353 82.5341 113.394 82.5605C113.552 82.6663 113.843 82.6539 114.028 82.6399C114.399 82.601 115.074 82.3879 115.668 82.1639C115.761 82.1234 115.853 82.0985 115.932 82.0705C116.026 82.0301 116.105 82.0052 116.184 81.9648C116.343 81.9119 116.488 81.859 116.594 81.8201C117.242 81.5821 117.942 81.4888 118.036 80.683C118.115 80.0219 117.916 76.4114 118.05 76.2263L121.872 75.0488V89.4081C121.766 89.5668 121.595 89.5932 121.448 89.6601C119.359 90.5996 115.299 91.7756 113.013 92.3714C112.313 92.5565 111.743 92.6763 111.029 92.7292C110.924 92.7432 110.832 92.7292 110.738 92.7292C110.58 92.7292 110.407 92.7432 110.25 92.7292C110.157 92.7292 110.065 92.7432 109.973 92.7292H109.774C109.642 92.7152 109.681 92.5845 109.681 92.4912C109.601 91.8565 109.681 90.9963 109.681 90.3228L109.678 90.3243ZM116.884 80.487C116.659 80.6861 114.716 81.1092 114.293 81.201V77.4583C115.099 77.2468 115.88 76.903 116.685 76.6914C116.791 76.665 116.884 76.6385 116.976 76.5981V79.8648C116.99 80.0499 117.017 80.3672 116.884 80.4854V80.487ZM108.449 71.6281C111.98 72.5941 116.065 73.0032 119.516 74.1139C119.622 74.1403 119.74 74.1403 119.767 74.2865L116.077 75.3443C113.142 74.2725 110.074 73.5197 107.007 72.871C106.571 72.7777 105.843 72.7916 105.42 72.6594C105.341 72.633 105.302 72.4603 105.261 72.3685L108.449 71.6281ZM102.802 73.1494C105.817 74.1543 108.951 74.7236 112.019 75.5434C112.641 75.7161 113.262 75.993 113.896 76.0194C113.882 76.1781 113.75 76.1641 113.658 76.2045C112.31 76.7459 110.656 77.0243 109.254 77.4614C105.644 76.3772 101.797 75.6897 98.2271 74.5525C98.1214 74.5261 97.9362 74.5261 97.9627 74.3939L102.802 73.151V73.1494ZM95.7009 75.2525L108.329 78.7572V92.7339H105.884C103.093 91.8472 100.251 91.1736 97.4602 90.301C97.1165 90.1952 95.7149 89.7985 95.6091 89.5605C95.5827 88.2912 95.6496 87.0079 95.6496 85.7261C95.4909 85.5021 95.4909 84.9063 95.6496 84.6683V84.3774C95.4909 84.2328 95.4909 83.7568 95.6496 83.6105V77.8456C95.4645 77.1456 95.5174 76.3243 95.6496 75.6368C95.676 75.531 95.5967 75.3194 95.7025 75.2541L95.7009 75.2525ZM122.926 91.9125C121.128 92.9314 118.907 93.4339 116.897 93.9099C116.356 95.6428 114.531 97.1765 112.824 97.7583C109.954 98.7508 106.716 98.6574 103.701 98.1814C99.0734 97.4534 94.3927 95.0999 92.8449 90.4068C92.792 90.2481 92.7391 90.1159 92.7656 89.9448C92.9382 89.9712 92.8854 90.1968 93.03 90.3414C95.0009 92.2454 103.634 93.8461 106.451 93.9908C112.204 94.2676 119.026 93.1974 124.118 90.5125L124.752 89.8514C124.726 90.8703 123.734 91.4785 122.928 91.9141L122.926 91.9125Z" fill="#28282F"/>
<path d="M108.33 78.7531V92.7298H105.885C103.094 91.8431 100.252 91.1696 97.4617 90.2969C97.118 90.1911 95.7164 89.7944 95.6106 89.5564C95.5842 88.2871 95.6511 87.0038 95.6511 85.722V75.6327C95.6775 75.5269 95.5982 75.3153 95.7039 75.25L108.332 78.7547L108.33 78.7531Z" fill="#FDBE3E"/>
<path d="M95.6495 75.6328V77.8417C95.4644 77.1417 95.5173 76.3204 95.6495 75.6328Z" fill="#28282F"/>
<path d="M95.6495 83.6055V84.3724C95.4909 84.2277 95.4909 83.7517 95.6495 83.6055Z" fill="#28282F"/>
<path d="M95.6495 84.6641V85.7218C95.4909 85.4978 95.4909 84.9021 95.6495 84.6641Z" fill="#28282F"/>
<path d="M121.87 75.0508V89.4101C121.764 89.5688 121.593 89.5952 121.447 89.6621C119.358 90.6017 115.298 91.7777 113.011 92.3734C112.311 92.5586 111.742 92.6783 111.028 92.7312C111.015 92.5866 110.751 92.5866 110.737 92.7312C110.578 92.7312 110.405 92.7452 110.248 92.7312C110.234 92.5866 109.984 92.5866 109.971 92.7312H109.772V78.9661C109.786 78.9132 110.143 78.781 110.301 78.7281C110.328 78.7281 110.34 78.7157 110.354 78.7157C110.763 78.557 111.292 78.3579 111.676 78.2397C112.138 78.081 112.669 77.9877 113.131 77.843V82.1146C113.131 82.141 113.355 82.5377 113.395 82.5641C113.554 82.6699 113.845 82.6575 114.03 82.6435C114.4 82.6046 115.075 82.3915 115.669 82.1675C115.763 82.127 115.855 82.1021 115.934 82.0741C116.027 82.0337 116.107 82.0088 116.186 81.9808C116.345 81.9279 116.489 81.8626 116.595 81.8221C117.244 81.5841 117.944 81.4908 118.037 80.685C118.116 80.0239 117.917 76.4134 118.051 76.2283L121.873 75.0508H121.87Z" fill="#D58D21"/>
<path d="M110.247 92.7296C110.154 92.7296 110.062 92.7436 109.97 92.7296C109.982 92.5849 110.234 92.5849 110.247 92.7296Z" fill="#D58D21"/>
<path d="M110.3 78.7258C110.141 78.7787 109.783 78.9109 109.771 78.9638V92.7289C109.639 92.7149 109.677 92.5842 109.677 92.4909C109.598 91.8562 109.677 90.996 109.677 90.3224V90.2291C109.665 88.7342 109.677 87.2144 109.677 85.7195L109.612 85.6402L109.677 85.5204V81.4869L109.665 78.8549L110.3 78.7227V78.7258Z" fill="#D58D21"/>
<path d="M111.028 92.7296C110.922 92.7436 110.83 92.7296 110.737 92.7296C110.751 92.5849 111.016 92.5849 111.028 92.7296Z" fill="#D58D21"/>
<path d="M116.594 81.8203C116.488 81.8608 116.343 81.9261 116.185 81.979C116.105 82.0054 116.026 82.0319 115.933 82.0723C116.026 82.0319 116.105 82.007 116.185 81.9665C116.343 81.9136 116.488 81.8608 116.594 81.8219V81.8203Z" fill="#D58D21"/>
<path d="M113.896 76.0169C113.882 76.1755 113.75 76.1615 113.658 76.202C112.31 76.7433 110.656 77.0218 109.254 77.4589C105.644 76.3747 101.797 75.6871 98.2271 74.55C98.1214 74.5235 97.9363 74.5235 97.9627 74.3913L102.802 73.1484C105.817 74.1533 108.951 74.7227 112.019 75.5424C112.641 75.7151 113.262 75.992 113.896 76.0184V76.0169Z" fill="#FDBE3E"/>
<path d="M116.884 80.485C116.659 80.6841 114.716 81.1072 114.293 81.199V77.4563C115.099 77.2448 115.879 76.901 116.685 76.6895C116.87 76.7828 116.87 76.8217 116.884 77.0208C116.964 77.9463 116.897 78.9248 116.976 79.8643C116.99 80.0494 117.017 80.3668 116.884 80.485Z" fill="#D58D21"/>
<path d="M116.978 76.5992V79.8659C116.899 78.9263 116.966 77.9479 116.886 77.0223C116.872 76.8232 116.872 76.7843 116.687 76.691C116.793 76.6645 116.886 76.6381 116.978 76.5977V76.5992Z" fill="#D58D21"/>
<path d="M119.767 74.2834L116.077 75.3412C113.142 74.2694 110.074 73.5166 107.007 72.8679C106.571 72.7746 105.843 72.7886 105.42 72.6563C105.341 72.6299 105.302 72.4572 105.261 72.3654L108.449 71.625C111.98 72.591 116.065 73.0001 119.516 74.1108C119.622 74.1372 119.74 74.1372 119.767 74.2834Z" fill="#FDBE3E"/>
<path d="M124.752 89.8457C124.726 90.8646 123.733 91.4728 122.928 91.9084C121.129 92.9273 118.908 93.4297 116.898 93.9057C116.357 95.6386 114.532 97.1724 112.826 97.7541C109.956 98.7466 106.717 98.6533 103.703 98.1773C99.0748 97.4493 94.3942 95.0957 92.8464 90.4026C92.7935 90.2439 92.7406 90.1117 92.767 89.9406C92.9397 89.967 92.8868 90.1926 93.0315 90.3373C95.0024 92.2413 103.636 93.8419 106.453 93.9866C112.205 94.2635 119.028 93.1933 124.119 90.5084L124.754 89.8473L124.752 89.8457Z" fill="#373940"/>
<defs>
<linearGradient id="paint0_linear_1182_12194" x1="83.5001" y1="24" x2="83.5001" y2="145" gradientUnits="userSpaceOnUse">
<stop stop-color="#FA6E68" stop-opacity="0.5"/>
<stop offset="1" stop-color="white" stop-opacity="0"/>
</linearGradient>
</defs>
</svg>
