<svg width="169" height="168" viewBox="0 0 169 168" fill="none" xmlns="http://www.w3.org/2000/svg">
<circle cx="84.1666" cy="84.5" r="60.5" fill="url(#paint0_linear_1182_12107)"/>
<path d="M70.8308 88.1232C70.7811 88.1668 69.5211 87.8028 69.7139 88.4017C69.7622 88.5526 70.0453 88.4359 70.0904 88.621C70.1448 88.8466 70.0328 89.1032 70.1386 89.377C70.1775 89.4781 71.4344 90.693 71.5682 91.0088L71.5728 91.2764L71.0175 91.5595L71.0284 91.9203C71.1373 92.2781 73.0226 93.3577 73.3057 93.6859C73.4862 93.8959 73.4457 93.9924 73.4333 94.2506C72.5668 94.3315 71.9695 94.2661 71.2042 93.8819L71.3691 94.2241C70.4497 94.4792 70.2039 95.9337 70.1059 96.7784C70.0733 97.0568 70.3315 97.4161 70.2537 97.5608C70.2335 97.5981 69.8944 97.6915 69.7451 97.8906C69.6066 98.0772 69.3453 98.6855 69.2535 98.7119C68.6375 98.8924 68.9455 98.3479 68.6064 98.337C68.6157 98.9406 68.3948 99.7697 67.6762 99.6375C67.5782 99.975 67.9624 100.084 67.9997 100.314C68.0293 100.501 67.8597 100.695 67.8644 100.826C67.8691 100.924 68.4679 100.991 68.2331 101.493H67.6746L67.8613 102.422L67.3371 102.444C67.3168 104.404 65.5699 104.402 64.1497 105.021C64.0564 104.289 64.0284 103.407 63.1168 103.358C62.8244 103.343 62.5584 103.547 62.2457 103.495C61.8988 103.439 61.1724 102.884 60.8862 102.615C60.5377 102.532 60.3806 103.316 59.8828 103.464C59.4644 103.589 59.1813 103.321 58.8608 103.349C58.5062 103.38 58.3988 103.792 58.0224 103.721C57.9897 103.309 58.1795 102.226 57.7424 102.052C57.6366 102.56 55.9628 102.714 55.5475 102.605C55.4044 102.568 55.4386 102.246 55.2986 102.229C55.0808 102.203 54.79 102.501 54.5862 102.249C54.188 101.775 54.3824 101.196 54.2968 100.667C54.2564 100.414 54.0122 100.225 53.9904 100.071C53.9484 99.7635 54.2051 99.4555 54.09 99.0324C54.0588 98.9172 53.0695 97.7195 52.9202 97.5966C52.6526 97.3772 52.1144 97.2466 52.088 97.2092C51.976 97.0583 52.3182 96.3832 52.2715 96.0255C52.2217 95.6475 51.6804 95.3504 51.6042 94.6348C51.4859 93.5148 52.1424 92.4103 52.914 91.6575C53.2562 92.0137 53.0804 92.4804 53.4382 92.8972C53.6155 93.1026 54.9533 94.1806 55.1866 94.2257C55.7839 94.3424 56.0219 93.9146 56.4497 93.8866C56.8293 93.8617 57.0875 94.0935 57.6537 93.9955C58.9713 93.7652 58.9542 92.2844 60.6217 92.7697L60.4335 93.1384C60.9826 92.989 61.5131 93.5615 61.9719 93.4852C62.2597 93.437 62.5024 93.1119 62.8026 93.0015C63.1402 92.877 63.5664 93.0746 63.8728 92.7728C64.0066 92.6406 65.8686 89.8017 65.9199 89.6212C66.2435 88.5059 65.6399 86.9395 67.3246 86.6906C68.7137 86.4852 70.4202 86.5008 70.8308 88.1264V88.1232Z" fill="black"/>
<path d="M27.3221 85.2111C27.5399 85.4802 27.5679 85.8474 27.7452 86.1336C27.949 86.4602 28.6319 86.3638 28.1201 87.1945C28.8917 87.07 29.1608 87.8602 29.5326 88.0982C29.8499 88.302 30.2995 88.3129 30.6028 88.5214C31.547 89.1669 32.3777 89.8296 32.2097 91.0942L32.7619 90.3538C32.8303 91.382 33.5272 91.3602 33.9721 92.026L33.899 91.368L34.3392 91.0974C34.7997 91.284 35.0999 92.3869 35.4172 92.5316C35.5681 92.6016 35.7703 92.4305 35.9212 92.5067C37.035 93.0714 36.6135 93.7262 37.0335 94.1618C37.413 94.5554 38.393 94.2582 38.7057 94.9038L37.9652 95.5494L39.5332 94.9847L40.2923 95.5478C40.5428 96.0394 39.6235 96.3691 39.2657 96.4827C39.2206 97.2122 40.1259 96.6911 39.5286 97.5934C40.1041 98.3338 40.7746 98.3898 41.6597 98.3556L41.8883 100.353L42.6055 100.568L42.2352 101.493C42.6241 101.39 44.021 101.135 44.2497 101.338C44.2932 101.375 44.3617 101.854 44.5235 102.08C44.7008 102.327 45.3883 103.007 45.3883 103.074C45.3883 103.159 44.8703 103.408 44.833 103.819C44.8112 104.06 44.9979 104.332 44.9823 104.559C44.8828 106.01 44.7583 107.473 44.6463 108.922C43.965 108.807 43.5481 107.322 43.2526 108.74L42.0486 108.182L42.1419 109.109C40.8943 107.274 38.9826 106.368 37.4192 104.918C36.979 104.511 34.123 101.457 33.9643 101.114C33.829 100.82 34.025 100.527 33.9612 100.361C33.605 99.418 32.1288 96.7036 31.4568 96.0238C31.1799 95.7438 30.4799 95.6909 30.2621 95.3611C29.6103 94.3734 29.8437 92.4725 28.7003 91.6714C28.3892 91.4536 27.1401 90.9947 27.0888 90.9216C26.9519 90.7256 27.0515 90.2822 26.9068 89.9898C26.0855 88.3191 23.3166 87.3967 22.1748 85.6218C22.0363 85.4071 21.5946 84.2965 21.6303 84.1471C21.8621 83.1858 23.581 84.5236 23.9481 84.5905C24.9157 84.7647 26.6423 84.382 27.3175 85.2127L27.3221 85.2111Z" fill="black"/>
<path d="M102.864 100.937C102.066 100.797 102.237 99.7376 102.04 99.5463C101.547 99.0703 100.677 99.3752 100.116 99.2616C99.8559 99.2088 98.5944 97.7014 99.9819 97.9659L100.262 98.893L100.543 97.7823C101.418 98.2179 102.376 96.8925 102.53 96.849C103.889 96.471 104.333 97.3794 105.128 97.5552C105.565 97.6517 106.335 97.4525 106.579 97.7699C106.367 98.2988 106.951 98.6363 106.971 98.9832C106.985 99.2383 106.675 99.6894 106.66 100.106C106.632 100.828 107.005 101.796 107.595 102.236L107.78 101.124C107.853 102.191 108.463 103.875 109.821 103.253C109.937 103.2 111.183 101.9 111.393 101.667C111.58 101.46 111.636 101.009 111.709 100.963C111.896 100.848 113.136 100.935 113.528 100.539C113.089 99.9025 114.352 99.3923 114.82 99.3519C115.494 99.2928 118.3 100.923 119.165 101.164C119.621 101.292 120.246 101.159 120.825 101.357C121.148 101.467 121.4 101.914 121.867 101.891C121.876 103.393 121.954 104.918 121.904 106.42C121.859 107.802 121.537 109.517 121.509 110.882C121.503 111.229 121.864 111.042 121.911 111.412C122.029 112.333 121.967 114.351 121.897 115.327C121.876 115.607 122.041 115.861 121.617 115.789C121.078 115.673 121.055 115.058 120.689 114.673C119.842 113.775 119.282 113.691 118.089 113.745C117.571 113.769 117.331 114.218 117.161 113.56L116.972 113.745C117.207 114.615 115.289 114.217 114.655 114.301C115.038 112.828 115.796 111.809 117.44 112.443L117.07 111.98L117.81 111.887L116.513 111.238L117.44 110.777C116.346 110.494 115.66 109.426 116.141 108.363L115.399 108.36L115.587 107.806C114.855 107.772 114.304 107.137 113.643 106.868C112.929 106.577 111.323 106.033 110.583 105.843C109.698 105.616 108.877 105.831 107.97 105.201L108.156 104.649L106.672 104.832L106.856 104.277C106.336 104.661 105.714 103.913 105.741 103.348L105.555 103.907L105.187 103.717C105.21 104.185 105.246 104.65 104.817 104.932C103.51 105.297 104.177 103.683 103.98 103.35L102.216 102.143C102.958 101.467 104.115 102.335 104.72 101.307L105.107 101.872L106.484 101.486V100.932C105.386 100.799 103.903 101.114 102.863 100.932L102.864 100.937Z" fill="black"/>
<path d="M86.9868 92.3965C87.2233 93.5103 86.5793 93.7592 85.9726 94.4483C85.7813 94.6645 85.8093 95.058 85.5479 95.1794C85.1513 95.3629 83.6299 95.4407 83.1711 95.3754C81.0462 95.0736 80.2357 95.128 78.1482 95.1638C77.3751 95.1778 77.1308 94.6147 76.4028 95.4578C75.8615 96.0847 75.7495 96.878 76.0793 97.6418C76.3235 98.2096 76.7715 98.0323 77.0437 98.3465C77.2102 98.5378 77.2086 99.0372 77.5057 99.1709C78.3177 99.5396 78.4966 98.6032 78.7284 98.3418C79.0955 97.9312 81.8146 97.5376 81.9733 98.0634C82.2206 98.8894 79.9402 99.9207 79.4424 100.366L78.9088 100.008C78.5775 100.397 79.3911 100.619 79.6602 100.929C80.0397 101.366 80.9793 102.637 80.9917 103.153C80.9995 103.464 80.6853 103.755 80.7568 103.908C80.8953 104.203 82.566 105.143 82.1615 105.578L80.4784 106.043L80.4893 106.692C78.5184 106.725 79.4968 105.483 79.2806 105.01C79.1453 104.715 78.0533 104.3 77.9148 103.774C77.8059 103.363 78.4017 102.522 78.2617 101.868C77.5446 101.758 77.0204 101.958 76.4884 102.422L76.3966 102.694C77.1075 103.565 76.6019 104.233 76.5739 105.115C76.5615 105.504 76.7186 105.855 76.7124 106.2C76.7015 106.871 76.2939 107.344 76.7746 108.176C76.0279 107.921 75.3015 108.762 74.7446 108.265C74.0462 107.638 74.7991 106.858 74.8955 106.022C75.0106 105.021 74.7944 104.457 74.5439 103.533L73.4317 103.721C73.5048 103.285 73.1595 102.354 73.2404 101.994C73.2902 101.775 73.7646 101.772 73.8999 101.5C74.0633 101.17 73.9202 100.809 73.9933 100.509C74.0291 100.361 74.3231 100.387 74.3557 100.252C74.5237 99.5349 74.0835 97.6185 75.4726 97.7803C75.2004 97.2872 75.4975 96.696 75.4819 96.3989C75.4711 96.1889 75.0199 96.4285 75.1039 96.1112L75.6391 96.0209C75.3279 95.2898 76.1524 94.6894 76.4044 94.0687L76.6828 94.4483C77.5322 94.5572 77.6955 93.3236 77.8137 93.3096C77.8666 93.3034 78.8279 93.3189 78.8793 93.3329C79.0815 93.3858 79.0473 93.7825 79.3008 93.8634C79.3786 93.8883 80.5437 93.8509 80.9295 93.9007C81.7835 94.0127 81.9624 94.0205 82.8071 94.0656C83.6875 94.1123 84.0064 94.4903 85.0082 94.0392C85.7782 93.6938 86.1904 92.6516 86.9837 92.3965H86.9868Z" fill="black"/>
<path d="M45.4364 109.249C45.5017 109.305 47.0277 109.397 47.16 109.387C47.3762 109.373 47.5753 108.989 48.0466 109.129C48.2799 109.197 48.4262 109.552 48.6797 109.627C49.1635 109.771 49.7173 109.535 50.2182 109.759C50.7331 109.988 50.6677 110.697 51.0022 110.842C51.6135 111.105 54.3155 111.299 54.9206 111.114C55.5771 110.913 55.4915 109.089 56.4777 110.597L59.6822 110.974C59.8688 113.337 61.8071 112.806 63.5913 112.82C63.7328 113.811 63.0966 114.524 63.9615 115.233C63.8417 115.334 61.5022 114.205 61.0339 114.153C59.7599 114.013 57.7906 114.228 56.4606 114.101C54.7184 113.933 53.1115 112.585 51.0659 112.83C50.7688 112.865 50.5837 113.163 50.3177 113.18C49.4653 113.237 47.3715 111.739 46.1348 112.262L46.3215 111.336C45.3648 111.061 44.5606 110.843 43.5355 110.961C43.5044 110.61 43.9431 110.874 44.2324 110.73C44.9402 110.373 44.7737 109.096 45.2995 108.922C45.4675 108.893 45.3446 109.173 45.4348 109.249H45.4364Z" fill="black"/>
<path d="M99.0081 102.847C99.0812 102.929 99.0672 103.183 99.173 103.329C99.2897 103.491 100.207 104.048 99.3379 104.281C98.6892 104.188 97.5521 103.23 97.0777 103.198C96.8319 103.181 96.6312 103.505 96.3575 103.538C95.9188 103.589 95.5252 103.206 95.2188 103.203C94.9217 103.2 94.7366 103.608 94.3617 103.519C94.0646 103.449 93.4595 102.673 93.6726 102.424C94.3244 101.979 95.4552 102.553 95.8068 102.525C96.0915 102.503 96.3279 102.231 96.7339 102.225C96.9455 102.222 98.9304 102.757 99.0081 102.845V102.847Z" fill="black"/>
<path d="M71.9741 114.287L72.8732 114.119L72.9665 114.678L73.2387 114.06L73.8019 113.936L73.9854 115.235C73.2745 114.676 72.657 115.935 72.4112 115.048C72.0192 115.533 69.0823 116.104 68.7867 115.79C68.8412 115.37 69.0325 114.662 69.4712 114.529C70.4543 114.23 70.9241 115.067 71.943 115.048C71.9756 114.291 70.8494 114.563 70.6441 113.937L71.6427 113.762L71.971 114.287H71.9741Z" fill="black"/>
<path d="M82.5301 113.751C82.6297 113.864 82.0137 114.743 81.9188 114.808C81.2935 115.244 79.993 115.18 79.3117 115.249C78.8808 115.292 78.5308 115.497 78.0486 115.504C77.3968 115.511 76.4883 115.14 75.7526 115.329L75.2921 114.955C76.0948 114.231 76.7979 113.915 77.8946 114.206C78.2446 114.3 78.6599 114.707 78.9819 114.763C79.5606 114.863 80.2201 114.242 80.9574 114.861C81.3681 114.942 82.3155 113.503 82.5301 113.749V113.751Z" fill="black"/>
<path d="M87.172 115.793C87.368 116.286 86.8018 116.101 86.7986 116.272C86.7955 116.442 87.0195 116.63 86.9029 116.902C86.8655 116.988 85.6864 118.162 85.6118 118.217C85.2353 118.484 83.9458 118.721 83.4589 118.576L84.0002 118.181C84.0546 118.102 83.4713 116.985 84.3922 116.624C84.7344 116.49 85.0564 116.79 85.3753 116.736C85.4842 116.717 86.1889 115.26 87.172 115.793Z" fill="black"/>
<path d="M94.9715 92.7666C95.2857 93.9084 94.2357 93.8337 94.0444 94.6224C94.8704 94.4995 94.9419 94.8728 95.1582 95.5495L93.3024 94.9941C93.2308 96.0099 93.2511 96.9448 94.0428 97.6868C93.6959 98.0384 93.5139 97.3539 93.2993 97.1221C93.1359 96.9464 92.7813 96.895 92.7408 96.7193C92.6817 96.4688 92.7906 96.1266 92.7315 95.8466C92.6522 95.4748 92.4204 95.0859 92.4297 94.7468C92.4546 93.9379 92.8979 94.4528 93.1251 94.3439C93.1686 94.3221 93.7799 93.6813 93.8064 93.6408C94.0771 93.1928 93.6026 92.6561 94.9715 92.7666Z" fill="black"/>
<path d="M75.7758 117.907C74.8938 117.364 73.8578 117.625 73.6183 116.72C75.4398 116.199 76.6921 116.731 77.8852 118.112C77.4683 118.65 76.7201 118.619 76.1616 118.346C75.9112 118.223 75.8676 117.964 75.7758 117.907Z" fill="black"/>
<path d="M44.4673 100.007C44.8344 99.9152 44.4704 99.0316 45.1859 99.4718C45.5904 99.7207 45.3944 102.088 46.8784 101.681L46.5004 102.602L45.0475 102.21C45.0117 101.671 45.0179 100.937 44.4159 100.698C44.0753 100.562 43.6195 100.936 43.3519 100.469L44.0021 99.4516L44.4657 100.007H44.4673Z" fill="black"/>
<path d="M91.5741 104.043C90.6346 104.872 88.9981 104.236 88.8457 102.98C89.5395 103.06 90.2535 102.621 90.941 102.831C91.3315 102.949 92.0175 103.652 91.5741 104.044V104.043Z" fill="black"/>
<path d="M65.0783 115.421L65.0519 114.703L63.9614 114.49V113.935C64.8403 113.968 65.6803 113.392 66.3757 114.215L65.0783 115.419V115.421Z" fill="black"/>
<path d="M93.1406 92.185C94.1268 92.6004 93.153 94.0641 92.187 93.8806C92.2897 92.9115 92.5821 91.8039 93.4843 91.2812L93.1406 92.185Z" fill="black"/>
<path d="M108.155 109.849L107.043 109.852L107.596 110.499C107.147 111.392 106.111 110.996 107.052 110.488L106.859 109.292H107.326L107.509 108.365C108.461 108.275 107.978 109.27 108.156 109.848L108.155 109.849Z" fill="black"/>
<path d="M66.9326 115.418C67.3402 114.716 67.5844 113.335 68.5224 114.309L68.048 115.525L66.9326 115.418Z" fill="black"/>
<path d="M49.988 101.912C50.4795 102.387 49.9662 102.839 49.5711 103.164L49.3782 102.782L48.7373 102.979L48.91 101.758C49.1542 101.582 49.7826 101.713 49.988 101.912Z" fill="black"/>
<path d="M62.6625 111.15C62.5567 111.493 61.5347 112.064 61.2687 112.07C61.0665 112.074 59.9045 111.552 60.0632 111.15H62.6625Z" fill="black"/>
<path d="M81.603 107.808C82.1179 107.663 82.163 106.369 82.1599 105.881L82.7168 105.766C82.8381 106.193 82.3714 106.473 82.3388 106.8C82.2734 107.433 83.6003 108.264 81.4179 108.363C81.4832 108.175 81.5688 108.012 81.603 107.808C81.3961 107.866 80.8205 107.961 80.8719 107.544C80.9512 106.892 81.0088 106.29 81.7881 106.323C81.8394 106.377 81.6419 107.581 81.603 107.807V107.808Z" fill="black"/>
<path d="M27.3795 94.8098C26.9486 94.9233 27.07 94.7056 26.9564 94.5733C26.7915 94.382 25.7835 93.0878 25.8971 92.954C26.3622 92.408 28.0189 94.0662 27.3795 94.8098Z" fill="black"/>
<path d="M30.3505 99.8217C29.6007 100.131 28.5476 98.1402 29.3332 97.9675C29.6972 97.8866 30.5014 99.674 30.3505 99.8217Z" fill="black"/>
<path d="M88.1005 100.196C88.1488 100.508 87.6619 100.385 87.4488 100.385C86.7348 100.385 86.027 100.37 85.3192 100.378C85.4561 99.1254 87.315 100.043 88.1021 100.196H88.1005Z" fill="black"/>
<path d="M100.173 113.378C100.061 113.274 100.872 111.757 101.19 111.896C102.094 112.289 100.517 113.7 100.173 113.378Z" fill="black"/>
<path d="M90.6999 112.635C90.8508 113.031 90.1866 113.235 89.9626 113.285C89.5177 113.385 89.1101 113.413 88.6575 113.374L88.9733 112.815L90.6984 112.635H90.6999Z" fill="black"/>
<path d="M93.2634 99.1209C93.321 99.1551 93.5683 99.6809 93.6726 99.8209H92.1886C91.9739 99.1722 92.7983 98.8471 93.265 99.1209H93.2634Z" fill="black"/>
<path d="M112.798 100.192L111.449 100.15L110.014 99.6387C110.832 99.6807 112.201 99.55 112.798 100.192Z" fill="black"/>
<path d="M141.192 67.9231C140.009 68.8564 138.726 69.6591 137.407 70.3497C138.13 72.6955 138.381 75.5251 136.502 77.3077C133.831 79.8946 126.142 81.6073 122.393 80.7906C121.996 80.7082 121.674 80.5557 121.307 80.4344C121.207 80.4017 121.1 80.3877 121.002 80.3504C120.507 80.1373 120.106 79.8091 119.669 79.5275C119.615 79.4933 119.56 79.4606 119.504 79.4248C119.22 79.0531 118.936 78.6828 118.653 78.3126C115.474 79.2351 112.263 80.0844 109.021 80.8591C108.902 81.2495 108.9 81.6633 108.786 82.0584C108.525 82.9653 107.993 83.9017 107.123 84.4586C104.896 85.9442 96.2222 86.4979 93.4424 85.8011C92.8062 85.6486 92.2259 85.3219 91.6442 85.1913C90.6719 84.9751 89.2595 84.8662 88.1348 84.6515C88.0119 84.6282 87.8891 84.5815 87.7428 84.5566C86.1608 84.3108 83.0357 84.8553 81.2764 84.8895C75.2735 85.0295 70.0126 84.0604 64.4313 82.5219C64.3535 82.5188 64.2773 82.5142 64.2011 82.5111C62.4526 82.0319 60.7104 81.5497 58.9744 81.0644C58.3397 80.6537 57.9493 80.2617 57.7766 79.6706C54.4804 79.0266 51.1919 78.3546 47.9159 77.6546C46.6279 77.0697 46.6855 76.6031 47.9082 76.2204C50.0891 75.5344 53.7944 76.1239 56.3019 76.2764C57.6071 76.3557 58.9262 76.3791 60.2437 76.4506C58.5591 72.5415 56.9739 68.7755 55.4837 65.1557C55.5444 64.8088 55.7357 64.6237 56.1697 64.4682C56.6768 64.3002 60.1099 63.4306 60.5393 63.4026C60.7415 63.3948 61.1895 63.4539 61.3871 63.5006C61.4711 63.5208 61.5784 63.5675 61.7075 63.6359C61.7262 63.6453 61.7448 63.6546 61.7635 63.6671C61.7806 63.6764 61.7962 63.6857 61.8133 63.6951C61.8304 63.7044 61.8475 63.7153 61.8646 63.7262C61.8879 63.7402 61.9113 63.7542 61.9346 63.7682C62.045 63.8366 62.1648 63.9128 62.2939 64.0015C62.3422 64.0357 62.3951 64.0699 62.4464 64.1073C62.5148 64.1555 62.5848 64.2068 62.6579 64.2582C62.6922 64.2815 62.7248 64.3064 62.7591 64.3313C62.8259 64.3811 62.8975 64.4324 62.9675 64.4853C63.0391 64.5382 63.1106 64.5926 63.1822 64.6486C63.3097 64.7451 63.4419 64.8477 63.5757 64.9519C63.6317 64.9971 63.6893 65.0406 63.7453 65.0857C63.7842 65.1153 63.8231 65.1464 63.8619 65.1775C63.9242 65.2273 63.9879 65.2786 64.0533 65.33C64.0859 65.3548 64.117 65.3813 64.1497 65.4077C64.2088 65.4559 64.2711 65.5057 64.3317 65.5555C64.3348 65.5586 64.3395 65.5617 64.3442 65.5648C64.4095 65.6177 64.4733 65.6706 64.5386 65.7235C64.5713 65.7499 64.6039 65.7764 64.6366 65.8028C64.6677 65.8293 64.7004 65.8557 64.733 65.8822C64.8357 65.9662 64.9384 66.0502 65.0395 66.1342C65.0784 66.1668 65.1173 66.1995 65.1562 66.2306C65.195 66.2633 65.2324 66.2944 65.2713 66.3271C65.3475 66.3908 65.4237 66.4531 65.4984 66.5153C65.6228 66.6195 65.7457 66.7222 65.8655 66.8217C65.9542 66.8964 66.0428 66.9711 66.1284 67.0426C66.2139 67.1142 66.2979 67.1842 66.3788 67.2526C66.4333 67.2977 66.4862 67.3428 66.5375 67.3848C66.7662 67.5762 66.9699 67.7457 67.1426 67.8873C67.1644 67.906 67.1846 67.9231 67.2064 67.9402C67.2173 67.9495 67.2282 67.9573 67.2391 67.9666C67.2546 67.9791 67.2702 67.9915 67.2857 68.004C67.2935 68.0102 67.2997 68.0164 67.3075 68.0211C67.3293 68.0397 67.3495 68.0568 67.3697 68.0724C67.3962 68.0942 67.4226 68.1128 67.4459 68.1315C67.4506 68.1299 67.4522 68.1315 67.4537 68.1393C67.4584 68.1533 67.4615 68.1797 67.4708 68.1735C67.7104 68.3462 67.9499 68.5204 68.1895 68.6946C68.2875 68.7646 68.3824 68.8362 68.4788 68.9046C68.5317 68.9435 68.5877 68.9824 68.6406 69.0213C69.1913 69.4226 69.7466 69.8286 70.3019 70.2362C70.3688 70.2906 70.4357 70.3466 70.5026 70.4042C70.5462 70.4415 70.5928 70.4788 70.6379 70.5162C70.7079 70.5753 70.7811 70.6344 70.8526 70.6935C70.9008 70.7324 70.9491 70.7728 70.9973 70.8102C71.2151 70.9828 71.4344 71.1446 71.6335 71.2659C71.6553 71.2799 71.6771 71.2939 71.6988 71.3048C71.7206 71.3188 71.7424 71.3297 71.7626 71.3406C71.7844 71.3531 71.8046 71.3624 71.8248 71.3717C71.8451 71.3826 71.8653 71.3919 71.8855 71.3997C71.9057 71.4091 71.9244 71.4168 71.9446 71.4246C72.5124 71.6486 75.7231 72.1993 76.3033 72.1028C83.2737 69.9095 90.3079 67.3086 97.2317 64.0171C104.042 60.8095 111.21 56.0837 117.916 52.0051C123.902 48.3837 128.595 47.2746 134.999 49.2362C135.844 49.4928 136.912 50.0933 137.717 50.2675C140.451 50.8695 143.698 50.1197 146.025 52.6553C150.685 57.7248 145.336 64.7995 141.193 67.9231H141.192Z" fill="#F4EEE4"/>
<path d="M146.023 52.656C143.696 50.1189 140.45 50.8686 137.715 50.2682C136.911 50.094 135.842 49.4935 134.997 49.2369C128.593 47.2738 123.902 48.3844 117.914 52.0057C111.208 56.0844 104.039 60.8086 97.23 64.0178C90.3063 67.3093 83.272 69.9102 76.3016 72.1035C75.7229 72.2 72.5107 71.6493 71.9429 71.4253C71.9243 71.4175 71.9056 71.4098 71.8838 71.4004C71.8636 71.3911 71.8434 71.3818 71.8231 71.3724C71.8029 71.3615 71.7811 71.3522 71.7609 71.3413C71.7391 71.3289 71.7189 71.318 71.6971 71.3055C71.6754 71.2931 71.6536 71.2791 71.6318 71.2666C71.4311 71.1453 71.2134 70.9835 70.9956 70.8109C70.9458 70.772 70.8976 70.7331 70.8509 70.6942C70.7794 70.6366 70.7063 70.576 70.6363 70.5169C70.5911 70.4795 70.546 70.4422 70.5009 70.4049C70.4325 70.3473 70.3656 70.2913 70.3003 70.2369C70.1245 70.0906 69.9627 69.96 69.832 69.8666C69.4058 69.5633 69.0185 69.2942 68.6389 69.022C68.5845 68.9831 68.53 68.9442 68.4771 68.9053C68.3807 68.8369 68.2843 68.7653 68.1878 68.6953C67.9498 68.5195 67.7071 68.3375 67.452 68.14C67.4489 68.1369 67.4474 68.1353 67.4443 68.1322C67.4209 68.1135 67.396 68.0933 67.368 68.0731C67.3478 68.0575 67.326 68.0404 67.3058 68.0218C67.298 68.0155 67.2918 68.0109 67.284 68.0046C67.2685 67.9922 67.2529 67.9798 67.2374 67.9673C67.2265 67.958 67.2156 67.9502 67.2047 67.9409C67.1829 67.9237 67.1627 67.9066 67.1409 67.888C66.9683 67.748 66.7645 67.5769 66.5358 67.3855C66.4845 67.3435 66.4316 67.2984 66.3771 67.2533C66.2947 67.1849 66.2123 67.1149 66.1267 67.0433C66.0411 66.9718 65.9525 66.8971 65.8638 66.8224C65.744 66.7229 65.6211 66.6202 65.4967 66.516C65.422 66.4538 65.3458 66.39 65.2696 66.3278C65.2307 66.2951 65.1934 66.264 65.1545 66.2313C65.1156 66.1986 65.0767 66.1675 65.0378 66.1349C64.9351 66.0509 64.834 65.9669 64.7314 65.8829C64.6987 65.8564 64.666 65.83 64.6349 65.8035C64.6007 65.7771 64.5696 65.7506 64.5369 65.7242C64.4716 65.6713 64.4063 65.6184 64.3425 65.5655C64.3378 65.5624 64.3331 65.5593 64.33 65.5562C64.2694 65.5064 64.2087 65.4582 64.148 65.4084C64.1154 65.382 64.0843 65.3555 64.0516 65.3306C63.9863 65.2793 63.9225 65.228 63.8603 65.1782C63.8214 65.1471 63.7825 65.116 63.7436 65.0864C63.686 65.0413 63.63 64.9962 63.574 64.9526C63.4403 64.8484 63.3096 64.7458 63.1805 64.6493C63.1074 64.5933 63.0358 64.5389 62.9658 64.486C62.8958 64.4331 62.8258 64.3818 62.7574 64.332C62.7231 64.3071 62.6905 64.2822 62.6563 64.2589C62.5831 64.206 62.5131 64.1562 62.4447 64.108C62.3934 64.0722 62.342 64.0364 62.2923 64.0022C62.1631 63.9151 62.0434 63.8373 61.9329 63.7689C61.9096 63.7549 61.8863 63.7409 61.8629 63.7269C61.8458 63.716 61.8271 63.7051 61.8116 63.6958C61.7945 63.6864 61.7789 63.6771 61.7618 63.6678C61.7431 63.6569 61.7245 63.6475 61.7058 63.6366C61.5783 63.5682 61.4694 63.5215 61.3854 63.5013C61.1894 63.4546 60.7398 63.3955 60.5376 63.4033C60.1083 63.4313 56.6751 64.3009 56.168 64.4689C55.734 64.6244 55.5427 64.8095 55.482 65.1564C56.9723 68.7762 58.5574 72.5422 60.242 76.4513C58.926 76.3798 57.6054 76.358 56.3003 76.2771C53.7911 76.1262 50.0874 75.5351 47.9065 76.2211C46.6838 76.6038 46.6278 77.0704 47.9143 77.6553C51.1918 78.3553 54.4787 79.0273 57.7749 79.6713C57.9491 80.2624 58.338 80.6529 58.9727 81.0651C60.7087 81.5504 62.4509 82.0326 64.1994 82.5118C64.2771 82.5149 64.3534 82.5195 64.4296 82.5226C70.0109 84.0611 75.2734 85.0302 81.2747 84.8902C83.034 84.856 86.1591 84.3115 87.7411 84.5573C87.8874 84.5806 88.0103 84.6289 88.1331 84.6522C89.2594 84.8669 90.6718 84.9757 91.6425 85.192C92.2258 85.3226 92.8045 85.6493 93.4407 85.8018C96.222 86.4986 104.894 85.9449 107.122 84.4593C107.991 83.9024 108.523 82.9644 108.785 82.0591C108.9 81.664 108.9 81.2502 109.02 80.8598C112.261 80.0851 115.472 79.2358 118.652 78.3133C118.935 78.6835 119.218 79.0538 119.502 79.4255C119.558 79.4598 119.613 79.4924 119.667 79.5282C120.103 79.8098 120.504 80.138 121 80.3511C121.097 80.3884 121.206 80.4024 121.305 80.4351C121.672 80.558 121.994 80.7089 122.391 80.7913C126.138 81.608 133.829 79.8953 136.5 77.3084C138.381 75.5273 138.129 72.6978 137.405 70.3504C138.723 69.6598 140.006 68.8571 141.19 67.9238C145.332 64.8002 150.682 57.7271 146.022 52.656H146.023ZM56.854 65.3353C56.8183 65.312 56.7825 65.2886 56.7451 65.2653C56.8105 65.2482 56.9131 65.2684 56.9567 65.2513C57.5618 65.0226 59.4067 64.5404 60.0896 64.4175C60.4007 64.3631 60.6278 64.3024 60.9249 64.4035C61.1909 64.4938 62.2425 65.3804 62.5458 65.6184C64.9165 67.4758 67.1503 69.5898 69.8616 71.4875C70.2131 71.7333 71.0329 72.3493 71.4016 72.494C72.0098 72.7304 73.0987 72.8206 73.7878 72.914C73.8454 73.1458 73.8034 73.0571 73.6385 73.1053C73.15 73.2484 72.5978 73.3169 72.1109 73.4522C69.5536 74.1615 66.9605 74.8071 64.4234 75.3951C64.0127 75.4978 61.6965 76.2071 61.4507 76.05C59.8314 72.3493 58.3007 68.7778 56.8556 65.3353H56.854ZM49.3391 77.1264C49.1525 77.0564 48.9658 76.9849 48.7791 76.9149C49.2629 76.8106 49.6378 76.7189 50.1714 76.6986C52.0489 76.6271 55.3265 77.0533 57.3985 77.1886C57.9585 77.226 58.506 77.2882 59.0707 77.3224C59.1454 77.3271 59.22 77.3255 59.2931 77.3286C60.2623 77.3846 61.2594 77.31 62.2191 77.562C62.2565 77.562 62.2938 77.562 62.3311 77.5635C63.0918 77.576 63.98 77.5215 64.7143 77.6833C64.9414 77.6833 65.1716 77.6926 65.3971 77.6895C65.5107 77.6895 65.6258 77.6895 65.7394 77.6926C65.8529 77.6958 65.968 77.688 66.0816 77.6942C66.1796 77.7004 66.2791 77.6973 66.318 77.7813C66.6447 77.7689 67.4318 77.5324 67.4785 77.9586C65.1809 78.3911 62.7994 79.2933 60.3525 79.0849C56.7903 78.7831 52.8251 77.5869 49.3391 77.128V77.1264ZM85.8994 78.1609C83.7605 78.696 80.7458 78.3771 78.4685 78.346C76.1429 78.3149 73.8423 78.3444 71.5494 78.2106C71.5167 78.2604 71.4654 78.3398 71.4514 78.3911C71.4451 78.416 71.4623 78.4502 71.4607 78.4798C71.4591 78.5389 71.4794 78.5995 71.4794 78.6586C71.5074 78.6773 71.5167 78.8266 71.6116 78.8842C72.8514 79.6573 81.4007 79.7164 83.5598 79.802C84.1711 79.8409 86.1918 79.9404 86.5465 80.376C86.4251 81.3015 85.7811 82.224 86.4018 83.1775C85.4436 83.2693 84.4947 83.4451 83.538 83.5229C75.5378 84.1529 68.9174 82.8213 61.5518 80.8286C61.3791 80.782 58.7923 80.1178 59.2294 79.8549C61.4616 80.2375 63.7763 79.746 65.8451 79.2591C66.4627 79.1144 67.2125 78.9635 67.7787 78.7426C67.886 78.7006 68.1007 78.6664 68.1163 78.6586C68.1583 78.6353 68.5425 78.2495 68.5643 78.2013C68.6358 78.0458 68.5923 77.7238 68.614 77.7051C68.7447 77.5978 72.1483 77.2929 72.6476 77.2042C80.9325 76.0718 89.8474 74.2409 98.6518 72.3742C101.4 71.7986 104.261 71.108 107.14 71.0504C107.634 71.0442 110.118 70.9866 110.043 71.654C110.023 71.8266 109.735 71.9386 109.601 72.0429C109.152 72.4209 105.059 73.8473 104.375 73.9266C103.651 74.0278 102.188 73.628 101.268 73.6746C99.12 73.7882 96.9236 74.6251 94.864 75.0031C94.8796 75.0529 94.8749 75.0855 94.8189 75.1135C91.6938 75.8509 88.9063 77.4158 85.9009 78.1624L85.8994 78.1609ZM107.26 79.3073C107.467 80.4475 107.508 81.5535 106.811 82.5942C106.038 83.7469 104.942 83.9055 103.499 84.1964C100.943 84.7424 94.5809 85.3802 92.2974 84.1326C91.3983 83.6489 91.5134 83.4638 91.1214 82.8306C90.2736 81.4602 89.8194 80.7306 90.412 79.2575C91.2816 77.0984 94.0427 76.5773 96.5254 75.9318C98.322 75.4698 100.531 74.7853 102.426 74.9798C103.53 74.6966 105.09 75.2504 105.842 76.0204C106.829 77.0362 107.032 78.0411 107.262 79.3089L107.26 79.3073ZM134.59 76.75C132.728 78.1251 127.56 79.4286 125.172 79.5951C124.897 79.6169 124.588 79.6262 124.346 79.4644C123.734 79.5858 123.2 79.5593 122.601 79.3462C121.816 79.0678 120.853 78.3086 120.475 77.6304C123.581 76.5695 126.65 75.4324 129.682 74.2191C132.129 78.2511 136.346 75.8851 135.172 71.738C135.417 71.6353 135.663 71.5311 135.909 71.4269C136.533 73.3386 136.271 75.532 134.588 76.7484L134.59 76.75ZM136.663 68.7498C128.004 73.9142 118.104 76.8402 108.883 79.3555C108.74 78.6882 108.598 78.0209 108.456 77.3551C108.405 77.1171 107.697 75.9333 107.498 75.6735C107.245 75.3406 106.921 75.1758 106.733 74.8491C108.698 74.258 110.804 73.2858 111.611 71.4486C111.58 71.2495 111.648 70.9555 111.613 70.8435C111.423 70.24 109.945 69.9942 109.357 69.9398C105.084 69.5509 100.369 70.9711 96.3309 71.822C91.3749 72.8891 86.4951 73.9049 81.6589 74.7542C81.5827 74.7682 81.4971 74.7573 81.4209 74.7698C80.5669 74.9191 79.7083 75.0762 78.8543 75.2162C78.7796 75.2286 78.694 75.2162 78.6178 75.2302C78.1076 75.3142 77.532 75.4184 76.9938 75.5024C76.9191 75.5149 76.8351 75.5024 76.7589 75.5133C73.92 75.9598 70.896 76.61 68.054 76.7437C67.9794 76.7484 67.9016 76.7438 67.8254 76.7453C66.192 76.7966 64.554 76.5991 62.9378 76.6535C62.9611 76.4964 63.1649 76.5198 63.3049 76.4793C64.5571 76.1309 65.9665 75.8509 67.2623 75.5382C77.98 72.9451 88.8471 69.3269 99.512 64.2169C105.005 61.5864 110.382 58.3742 115.792 55.0282C120.439 52.1613 123.956 49.7626 129.48 49.8995C130.32 50.0069 131.161 50.1126 132.004 50.22C130.69 51.0553 129.396 51.9171 128.081 52.726C127.86 52.8613 127.554 52.7944 127.731 53.1553C127.907 53.1382 127.966 53.0542 128.212 53.1133C128.812 53.2502 130.066 54.0451 130.786 54.3126C131.177 54.4589 131.639 54.6533 132.062 54.5771C132.057 54.7435 131.653 55.0935 131.522 55.204C133.182 54.1866 134.823 53.1398 136.446 52.0649C137.475 52.1178 138.5 52.2095 139.535 52.32C141.305 52.5098 142.612 52.4646 144.099 53.6282C150.181 58.4146 140.692 66.586 136.662 68.7513L136.663 68.7498Z" fill="#28282F"/>
<path d="M67.2654 75.5366C77.9816 72.9419 88.8487 69.3268 99.5152 64.2137C105.008 61.5817 110.385 58.371 115.796 55.025C120.442 52.1581 123.959 49.7579 129.483 49.8963C130.323 50.0037 131.165 50.111 132.008 50.2183C130.693 51.0537 129.399 51.9154 128.084 52.7228C127.864 52.8581 127.559 52.7912 127.734 53.1537C127.63 53.1646 127.475 53.2579 127.353 53.2937C126.599 53.5177 124.981 54.2441 124.287 54.7512C123.661 55.2132 123.545 56.383 123.542 57.0861C123.528 59.1239 124.16 58.8781 125.913 58.231C127.556 57.6228 129.452 56.5946 130.912 55.5648C131.087 55.4419 131.272 55.4186 131.525 55.2023C133.184 54.185 134.825 53.1381 136.449 52.0632C137.48 52.1146 138.504 52.2079 139.538 52.3183C139.236 52.5034 139.006 52.7881 138.774 53.0557C137.172 54.899 136.539 56.4997 135.982 58.7599C135.929 58.9761 135.987 59.2281 135.766 59.3914C128.05 63.7999 119.983 67.625 111.616 70.8434C111.424 70.2399 109.948 69.9941 109.36 69.9381C105.087 69.5492 100.372 70.9694 96.3341 71.8219C96.1536 71.4174 97.0698 71.5994 97.1601 71.4906C96.9563 71.0099 96.7401 69.543 96.1645 69.4186C96.0261 69.4217 95.8861 69.4263 95.7476 69.4294C91.0918 71.1545 86.7363 73.5921 81.9841 74.4912C81.7849 74.5301 81.5656 74.5223 81.6636 74.7526C81.5874 74.7666 81.5018 74.7557 81.4256 74.7681C81.4489 74.4788 81.2405 74.5783 81.0165 74.6266C80.5654 74.7246 80.0256 74.8708 79.5807 74.9501C79.3847 74.9859 78.7687 74.8226 78.8589 75.2146C78.7843 75.227 78.6987 75.2146 78.6225 75.2285C78.4405 75.1741 78.2601 75.1197 78.0796 75.0637C78.0501 75.4852 77.0156 74.9112 76.9985 75.4992C76.9238 75.5117 76.8383 75.4992 76.7636 75.5101C76.7745 75.185 76.6096 75.381 76.4183 75.409C73.7972 75.8119 70.9878 76.2568 68.5876 76.4917C68.4274 76.5072 67.9452 76.5197 68.0587 76.7406C67.9825 76.7437 67.9063 76.7406 67.8301 76.7421C67.8767 76.5321 67.6683 76.5523 67.4754 76.5274C66.6058 76.4154 65.7083 76.5181 64.8558 76.5788C64.8714 76.4917 64.8869 76.4046 64.9025 76.3174C65.4469 76.2039 65.9898 76.0872 66.5312 75.9674C66.7769 75.8243 67.0227 75.6812 67.2669 75.5366H67.2654ZM115.755 63.3472C116.262 63.5666 117.995 62.7437 118.101 62.263C118.179 61.9208 117.809 59.3043 117.616 59.0539C117.146 58.4488 115.278 59.631 115.068 60.1692C114.836 60.7805 115.153 63.089 115.755 63.3472ZM112.526 61.7497C112.084 61.5039 110.374 62.3174 110.133 62.7483C109.869 63.2306 110.02 65.5965 110.65 65.7785C111.634 65.6961 113.142 65.231 113.064 64.1048C113.035 63.677 112.932 62.865 112.853 62.4388C112.817 62.2412 112.702 61.8461 112.526 61.7481V61.7497ZM106.635 64.2572C106.216 64.4174 105.331 64.9074 105.236 65.3243C105.097 65.9419 105.176 68.0014 106.103 68.0621C106.724 68.1041 108.03 67.3777 108.189 66.7523C108.296 66.3354 108.018 64.6306 107.817 64.279C107.603 63.9026 106.986 64.1219 106.635 64.2557V64.2572ZM102.281 66.3183C101.922 66.4225 100.662 67.0946 100.55 67.4181C100.4 67.8583 100.599 69.3097 100.868 69.6768C101.377 70.3706 103.225 69.6068 103.431 68.9566C103.555 68.5723 103.437 67.2423 103.283 66.869C103.127 66.4925 102.771 66.1799 102.281 66.3199V66.3183Z" fill="#F8F3EA"/>
<path d="M143.469 54.5059C143.749 54.5883 144.031 54.6708 144.311 54.7516C144.359 57.0554 142.458 59.1803 140.979 60.7265C135.652 66.4292 125.232 70.8905 118.229 73.409C115.867 74.2832 113.462 75.075 111.073 75.7423C110.994 75.7003 111.253 74.3236 111.291 74.1199C111.412 73.4759 111.796 72.3807 111.807 71.7959C111.812 71.5345 111.616 71.463 111.613 71.4443C111.582 71.2436 111.65 70.9512 111.614 70.8392C119.982 67.6207 128.049 63.7941 135.764 59.3872C135.985 59.2239 135.928 58.9719 135.981 58.7556C136.041 58.8832 136.102 59.0107 136.164 59.1383C138.351 58.2781 140.322 56.5623 142.43 55.531C142.539 55.4781 142.665 55.4392 142.655 55.2883C142.693 55.2587 142.755 55.2665 142.789 55.237C142.82 55.1732 142.85 55.1094 142.881 55.0456C142.915 55.0145 142.984 55.0254 143.015 54.9943C143.089 54.9134 143.166 54.831 143.24 54.7501C143.313 54.6692 143.397 54.5852 143.466 54.5059H143.469Z" fill="#BF1E1D"/>
<path d="M144.101 53.625C150.183 58.4114 140.694 66.5828 136.662 68.7466C128.004 73.911 118.104 76.837 108.883 79.3523C108.74 78.685 108.598 78.0177 108.457 77.3519C108.405 77.1154 107.696 75.9301 107.498 75.6688C107.245 75.3359 106.921 75.1694 106.733 74.8443C108.699 74.2548 110.805 73.2826 111.611 71.4454C111.614 71.4657 111.81 71.5372 111.806 71.797C111.795 72.3819 111.411 73.4754 111.289 74.121C111.252 74.3248 110.991 75.7014 111.071 75.7434C113.461 75.0761 115.866 74.2843 118.227 73.4101C125.23 70.8901 135.651 66.4288 140.977 60.7277C142.458 59.1814 144.357 57.0566 144.309 54.7528C144.027 54.6703 143.747 54.5879 143.467 54.507C143.677 54.2581 143.872 53.8832 144.099 53.625H144.101Z" fill="#931614"/>
<path d="M56.9568 65.2498C57.733 65.3307 59.5763 64.556 60.1939 64.7816C61.793 66.0571 63.291 67.4758 64.9461 68.8462C65.7519 69.5074 69.6392 72.816 70.4372 73.0602C70.8479 73.1785 71.3192 73.1816 71.747 73.2469C71.943 73.2765 72.1514 73.2158 72.1094 73.4507C69.5505 74.16 66.959 74.8056 64.4219 75.3936C64.5541 75.2582 64.4763 75.154 64.3985 75.014C63.6768 73.7027 62.1959 72.0802 61.2859 70.87C59.9108 69.0391 58.3925 67.216 57.2274 65.4645C57.1154 65.2965 57.1543 65.2871 56.8525 65.3338C56.8168 65.3105 56.7794 65.2871 56.7437 65.2638C56.809 65.2482 56.9101 65.2669 56.9552 65.2498H56.9568Z" fill="#BF1E1D"/>
<path d="M67.7787 78.7422C68.0105 78.8682 68.0276 78.778 67.9514 78.9817C67.6123 79.898 66.0614 80.6726 68.1194 81.1455C71.7127 81.9995 78.2383 80.9277 81.9358 80.2169C82.4538 80.1235 83.1227 80.0224 83.5614 79.8015C84.1727 79.8404 86.1934 79.9384 86.5465 80.374C86.4252 81.3011 85.7812 82.222 86.4018 83.1771C85.4436 83.2689 84.4932 83.4431 83.5381 83.5208C75.5394 84.1508 68.9174 82.8193 61.5534 80.8266C61.3807 80.78 58.7938 80.1157 59.2294 79.8529C61.4616 80.2355 63.7763 79.744 65.8452 79.2571C66.4643 79.1124 67.2125 78.9615 67.7787 78.7422Z" fill="#931614"/>
<path d="M100.108 77.8121C100.11 77.8821 100.155 77.9661 100.148 78.0283C100.089 78.047 100.041 78.0983 100.041 78.1497C100.041 78.3146 100.116 78.7703 100.295 78.8512C100.55 78.8045 100.805 78.7594 101.058 78.7128C101.097 80.1034 102.213 82.5643 104.222 82.7557C106.15 82.9377 106.727 80.7894 106.629 79.4905C106.788 79.3957 106.946 79.3008 107.105 79.2059C107.138 79.2463 107.211 79.2743 107.259 79.3039C107.466 80.4441 107.506 81.5501 106.809 82.5892C106.036 83.7403 104.941 83.899 103.498 84.1914C100.942 84.7374 94.5795 85.3768 92.296 84.1277C91.3969 83.6439 91.512 83.4588 91.12 82.8257C90.9955 82.4974 91.2957 82.6405 91.5275 82.6063C94.1751 82.2097 97.28 82.3185 100.033 81.8954C100.232 81.8643 100.404 81.7865 100.593 81.7414C99.7642 80.2901 99.6242 79.3085 99.9789 77.823C100.021 77.8183 100.064 77.8137 100.106 77.8105L100.108 77.8121Z" fill="#931614"/>
<path d="M92.691 78.5775C92.5961 78.7595 92.4997 78.94 92.4033 79.1204C93.4626 79.2806 99.6226 77.1666 100.024 77.3782C100.052 77.5275 100.013 77.6815 99.9788 77.8246C99.6241 79.3102 99.7641 80.2933 100.593 81.7431C100.403 81.7882 100.234 81.8675 100.033 81.8971C97.2799 82.3202 94.175 82.2097 91.5275 82.608C91.2957 82.6422 90.9955 82.4991 91.1199 82.8273C90.2721 81.4568 89.8179 80.7273 90.4106 79.2542C90.5848 79.3911 90.521 79.5264 90.8041 79.3833C91.3844 79.0908 91.9319 78.6242 92.6895 78.5775H92.691Z" fill="#BF1E1D"/>
<path d="M77.5492 77.155C83.3126 76.5452 89.1677 75.7612 95.0757 74.7656C94.9575 74.8138 94.8392 74.8636 94.7195 74.9118C94.7444 74.9585 94.8595 74.985 94.8641 75.0005C94.8781 75.0503 94.8766 75.083 94.819 75.1094C91.6939 75.8467 88.9064 77.4116 85.901 78.1583C83.7621 78.6918 80.7459 78.373 78.4701 78.3434C76.1446 78.3123 73.8439 78.3403 71.551 78.2081C71.6957 77.9903 72.0581 77.7274 72.3755 77.6652C73.889 77.365 75.9595 77.323 77.5492 77.1534V77.155Z" fill="#931614"/>
<path d="M68.1164 78.6582C68.2284 78.8464 68.4337 78.8402 68.6515 78.8449C69.4495 78.8635 70.3859 78.6038 71.159 78.4824C71.2228 78.6364 71.453 78.6411 71.4795 78.6582C71.5059 78.6769 71.5168 78.8262 71.6132 78.8822C72.853 79.6553 81.4024 79.7144 83.5615 79.8C83.1244 80.0209 82.4539 80.122 81.9359 80.2153C78.2384 80.9262 71.7144 81.998 68.1195 81.144C66.0615 80.6711 67.6124 79.898 67.9515 78.9802C68.0277 78.7764 68.0106 78.8666 67.7788 78.7406C67.8861 78.6986 68.1008 78.6644 68.1164 78.6566V78.6582Z" fill="#BF1E1D"/>
<path d="M56.8541 65.3348C57.1559 65.2881 57.117 65.2974 57.229 65.4654C58.3941 67.2154 59.9123 69.0401 61.2875 70.871C62.1975 72.0828 63.6783 73.7052 64.4001 75.015C64.4763 75.1534 64.5541 75.2577 64.4235 75.3946C64.0128 75.4972 61.6966 76.2066 61.4508 76.0494C59.8315 72.3488 58.3008 68.7772 56.8557 65.3348H56.8541Z" fill="#931614"/>
<path d="M107.14 71.0488C103.888 71.8795 100.604 72.6355 97.2938 73.3168C90.8305 74.9906 84.2022 75.7622 77.9022 76.9242C77.6938 76.963 77.4465 76.9008 77.5491 77.1544C75.9594 77.3239 73.8889 77.3659 72.3754 77.6662C72.058 77.7299 71.6956 77.9928 71.5509 78.2091C71.5167 78.2588 71.4669 78.3382 71.4529 78.3895C71.4156 78.4051 71.3798 78.4191 71.3425 78.4346C71.3829 78.4502 71.4218 78.4642 71.4622 78.4797C71.4607 78.5388 71.4794 78.5995 71.4809 78.6586C71.4545 78.6415 71.2242 78.6368 71.1605 78.4828C70.3874 78.6042 69.4509 78.8639 68.6529 78.8453C68.4367 78.8406 68.2298 78.8453 68.1178 78.6586C68.1598 78.6353 68.544 78.2495 68.5658 78.2013C68.6374 78.0457 68.5938 77.7237 68.614 77.7051C68.7447 77.5977 72.1482 77.2928 72.6476 77.2042C80.934 76.0717 89.8458 74.2408 98.6518 72.3726C101.399 71.7971 104.261 71.1064 107.14 71.0504V71.0488Z" fill="#E83B35"/>
<path d="M122.601 79.3451C121.816 79.0667 120.851 78.3076 120.475 77.6293C123.581 76.5684 126.65 75.4313 129.682 74.2196C132.129 78.2516 136.345 75.8856 135.172 71.7384C135.417 71.6342 135.663 71.53 135.909 71.4258C136.533 73.3391 136.271 75.5309 134.588 76.7489C132.726 78.124 127.559 79.426 125.171 79.594C124.896 79.6158 124.586 79.6251 124.345 79.4633C125.162 79.3031 126.167 79.1102 127.01 78.8971C128.497 78.5238 129.841 77.7678 131.407 77.5749C131.325 77.4536 131.244 77.3338 131.161 77.2124C131.465 77.2451 131.768 77.2778 132.073 77.3104C130.682 76.4269 129.326 77.0024 127.948 77.4178C126.195 77.9498 124.203 78.6218 122.6 79.3451H122.601Z" fill="#931614"/>
<path d="M109.6 72.0412C109.777 71.6508 109.642 71.8421 109.356 71.8499C106.823 71.9323 103.91 73.0088 101.411 73.4272C101.102 73.4801 100.987 73.4085 101.265 73.6714C99.1169 73.785 96.922 74.6219 94.8609 74.9999C94.8563 74.9843 94.7412 74.9579 94.7163 74.9112C94.8345 74.863 94.9527 74.8132 95.0725 74.765C89.1645 75.759 83.3109 76.5445 77.546 77.1543C77.4449 76.9008 77.6907 76.9614 77.8992 76.9241C84.1992 75.7621 90.8274 74.9905 97.2907 73.3168C100.601 72.6354 103.885 71.8794 107.137 71.0488C107.63 71.0425 110.115 70.985 110.04 71.6508C110.02 71.825 109.732 71.9354 109.598 72.0412H109.6Z" fill="#BF1E1D"/>
<path d="M50.1699 76.6988C50.7921 76.8528 51.5403 76.9664 52.1843 77.0395C53.8503 77.2262 55.7186 77.3522 57.4095 77.4299C58.0161 77.4579 58.3086 77.4144 58.9666 77.4813C59.1812 77.503 59.2372 77.4859 59.301 77.4906C59.3757 77.4968 59.4503 77.4937 59.525 77.4968C59.553 77.4968 59.6479 77.6244 59.749 77.503C59.8983 77.5077 60.0477 77.5108 60.197 77.5155C60.1519 77.7799 60.3899 77.6602 60.5999 77.6866C61.9532 77.853 63.6768 78.0646 65.0286 78.1144C65.3848 78.1284 66.3788 78.2326 66.203 77.7799C66.2357 77.7862 66.2839 77.7815 66.3166 77.7799C66.6432 77.7675 67.4303 77.5295 67.477 77.9573C65.1779 78.3897 62.7979 79.2919 60.351 79.0835C56.7888 78.7817 52.8237 77.587 49.3361 77.125C49.1495 77.055 48.9628 76.9835 48.7761 76.9135C49.2599 76.8108 49.6348 76.719 50.1683 76.6973L50.1699 76.6988Z" fill="#931614"/>
<path d="M56.9567 65.2499C57.5618 65.0212 59.4067 64.539 60.0896 64.4161C60.4007 64.3617 60.6278 64.301 60.9249 64.4021C61.1909 64.4908 62.2424 65.379 62.5458 65.617C64.9149 67.4759 67.1502 69.5883 69.8616 71.4861C70.2131 71.7319 71.0329 72.3479 71.4016 72.491C72.0098 72.7274 73.0987 72.8177 73.7878 72.9126C73.8453 73.1443 73.8018 73.0557 73.6384 73.1039C73.1484 73.247 72.5978 73.3154 72.1109 73.4508C72.1529 73.2159 71.9444 73.2766 71.7484 73.247C71.3207 73.1832 70.8493 73.1801 70.4387 73.0603C69.6407 72.8161 65.7533 69.509 64.9476 68.8463C63.2924 67.4743 61.7944 66.0572 60.1953 64.7817C59.5778 64.5561 57.7329 65.3308 56.9582 65.2499H56.9567Z" fill="#E83B35"/>
<path d="M81.6606 74.752C81.5626 74.5217 81.7819 74.5295 81.981 74.4906C86.7333 73.59 91.0888 71.154 95.7446 69.4289C95.883 69.4257 96.023 69.4211 96.1615 69.418C96.7386 69.5424 96.9533 71.0077 97.157 71.49C97.0668 71.5989 96.1506 71.4169 96.331 71.8213C91.375 72.8884 86.4937 73.9042 81.659 74.7535L81.6606 74.752Z" fill="#F4EEE4"/>
<path d="M139.537 52.318C141.305 52.5077 142.612 52.4626 144.101 53.6262C143.872 53.8844 143.679 54.2577 143.469 54.5082C143.401 54.5891 143.317 54.6715 143.243 54.7524C143.177 54.8271 143.085 54.9297 143.018 54.9966C142.987 55.0277 142.917 55.0169 142.884 55.048C142.802 55.1257 142.8 55.2331 142.792 55.2393C142.758 55.2688 142.696 55.2611 142.659 55.2906C142.57 55.3606 142.428 55.3668 142.433 55.5333C140.325 56.5646 138.353 58.2804 136.167 59.1406C136.107 59.0131 136.044 58.8855 135.984 58.758C136.541 56.4977 137.174 54.8986 138.776 53.0537C139.008 52.7862 139.238 52.5015 139.54 52.3164L139.537 52.318Z" fill="#E83B35"/>
<path d="M102.426 74.9777C101.607 75.1877 101.195 75.9375 100.565 76.247C99.2149 76.9128 96.1365 77.3437 94.4674 77.857C93.814 78.0592 93.24 78.2304 92.6925 78.5804C91.9349 78.627 91.3858 79.0952 90.8071 79.3861C90.524 79.5277 90.5878 79.3939 90.4136 79.257C91.2831 77.0979 94.0442 76.5752 96.5253 75.9312C98.3236 75.4692 100.531 74.7848 102.427 74.9792L102.426 74.9777Z" fill="#931614"/>
<path d="M102.426 74.9775C103.53 74.6944 105.09 75.2482 105.84 76.0182C106.828 77.0339 107.032 78.0388 107.26 79.3066C107.211 79.2771 107.137 79.2491 107.106 79.2086C106.826 78.8539 106.931 78.4371 106.437 78.2442C106.431 78.3219 106.425 78.3997 106.419 78.4759C105.893 76.9235 104.216 75.0211 102.314 76.2064C101.962 76.4242 101.313 77.1133 101.212 77.4726C100.834 77.5473 100.235 77.4291 100.106 77.8117C100.064 77.8164 100.021 77.8211 99.9788 77.8242C100.013 77.6811 100.052 77.5271 100.024 77.3777C99.621 77.1677 93.461 79.2802 92.4032 79.1199C92.4996 78.9395 92.5945 78.7575 92.691 78.5771C93.2385 78.2271 93.8125 78.0559 94.4659 77.8537C96.135 77.3404 99.215 76.9095 100.564 76.2437C101.195 75.9357 101.606 75.1844 102.424 74.9744L102.426 74.9775Z" fill="#E83B35"/>
<path d="M101.267 73.6727C100.988 73.4098 101.103 73.4813 101.413 73.4285C103.911 73.01 106.825 71.9336 109.357 71.8511C109.643 71.8433 109.779 71.6505 109.601 72.0425C109.15 72.4205 105.058 73.8453 104.373 73.9247C103.65 74.0258 102.186 73.626 101.267 73.6727Z" fill="#931614"/>
<path d="M122.601 79.3451C124.207 78.6234 126.196 77.9514 127.949 77.4178C129.327 77.0025 130.684 76.4254 132.075 77.3105C131.771 77.2778 131.466 77.2451 131.163 77.2125C131.245 77.3338 131.326 77.4536 131.409 77.5749C129.842 77.7678 128.498 78.5238 127.011 78.8971C126.168 79.1102 125.163 79.3031 124.347 79.4634C123.734 79.5831 123.199 79.5582 122.6 79.3451H122.601Z" fill="#BF1E1D"/>
<path d="M127.735 53.1528C127.909 53.1342 127.968 53.0533 128.215 53.1093C128.816 53.2477 130.069 54.0411 130.79 54.3102C131.179 54.4548 131.642 54.6508 132.065 54.5746C132.061 54.7411 131.656 55.0926 131.525 55.2015C131.27 55.4162 131.087 55.4411 130.913 55.564C129.699 54.92 128.41 54.4408 127.308 53.66C127.013 53.45 127.209 53.5604 127.353 53.2928C127.476 53.2571 127.63 53.1637 127.735 53.1528Z" fill="#931614"/>
<path d="M57.3971 77.1856C57.4017 77.2665 57.4064 77.3458 57.4111 77.4267C55.7202 77.3489 53.852 77.2229 52.186 77.0362C51.542 76.9647 50.7937 76.8511 50.1715 76.6956C52.0475 76.624 55.3251 77.0487 57.3986 77.1856H57.3971Z" fill="#BF1E1D"/>
<path d="M62.2177 77.5588C62.2551 77.5588 62.2924 77.5603 62.3297 77.5603C63.1246 77.6023 63.9195 77.6428 64.7128 77.6801C64.9399 77.6801 65.1686 77.6895 65.3957 77.6863C65.4222 77.8155 65.7317 77.8186 65.7379 77.6895C65.8515 77.6926 65.9666 77.6848 66.0802 77.691C66.1019 77.7299 66.1471 77.7672 66.2015 77.7781C66.3788 78.2292 65.3833 78.1266 65.0271 78.1126C63.6753 78.0628 61.9517 77.8512 60.5984 77.6848C60.3884 77.6583 60.1504 77.7781 60.1955 77.5137C60.8784 77.5759 61.5691 77.5479 62.2177 77.5588Z" fill="#931614"/>
<path d="M68.0557 76.741C67.9421 76.5201 68.4244 76.5092 68.5846 76.4921C70.9848 76.2572 73.7941 75.8123 76.4153 75.4094C76.6081 75.3799 76.7715 75.1839 76.7606 75.5106C73.9217 75.957 70.8977 76.6072 68.0557 76.741Z" fill="#F4EEE4"/>
<path d="M67.2655 75.5367C67.0197 75.6814 66.7755 75.8245 66.5297 75.9676C65.9884 76.0874 65.4455 76.204 64.901 76.3176C64.8855 76.4047 64.8699 76.4918 64.8544 76.5789C65.7068 76.5183 66.6044 76.4156 67.4739 76.5276C67.6668 76.5525 67.8753 76.5338 67.8286 76.7423C66.1953 76.7936 64.5573 76.596 62.941 76.6505C62.9644 76.4934 63.1682 76.5152 63.3082 76.4763C64.5619 76.1278 65.9697 75.8478 67.2655 75.5352V75.5367Z" fill="#F4EEE4"/>
<path d="M78.8559 75.2141C78.7657 74.8205 79.3817 74.9854 79.5777 74.9496C80.021 74.8703 80.5623 74.7225 81.0134 74.6261C81.2374 74.5779 81.4459 74.4799 81.4226 74.7676C80.5686 74.917 79.7099 75.0741 78.8559 75.2141Z" fill="#F4EEE4"/>
<path d="M62.2177 77.5595C61.569 77.5486 60.8784 77.5751 60.1955 77.5144C60.0461 77.5097 59.8968 77.5066 59.7475 77.502C59.6728 77.5004 59.5981 77.4973 59.5235 77.4957C59.4488 77.4926 59.3741 77.4957 59.2995 77.4895C59.2964 77.4351 59.2932 77.3806 59.2886 77.3262C60.2577 77.3822 61.2548 77.3059 62.2146 77.5595H62.2177Z" fill="#BF1E1D"/>
<path d="M78.6209 75.2278C78.1107 75.3118 77.5352 75.4145 76.9969 75.5C77.0125 74.912 78.0469 75.4845 78.0781 75.0645C78.2585 75.1189 78.4405 75.1733 78.6209 75.2293V75.2278Z" fill="#F4EEE4"/>
<path d="M59.0692 77.3193C59.035 77.3722 59.0007 77.4251 58.9681 77.478C58.3116 77.4095 58.0176 77.4547 57.411 77.4267C57.4063 77.3458 57.4016 77.2664 57.397 77.1855C57.957 77.2229 58.5045 77.2851 59.0692 77.3193Z" fill="#BF1E1D"/>
<path d="M64.7143 77.6803C63.9194 77.643 63.1261 77.6041 62.3312 77.5605C63.0903 77.573 63.9801 77.5185 64.7143 77.6803Z" fill="#BF1E1D"/>
<path d="M59.2917 77.3269C59.2948 77.3814 59.2979 77.4358 59.3026 77.4903C59.2388 77.4856 59.1828 77.5027 58.9681 77.4809C59.0024 77.428 59.0366 77.3752 59.0693 77.3223C59.1439 77.3269 59.2186 77.3238 59.2917 77.3285V77.3269Z" fill="#BF1E1D"/>
<path d="M65.7394 77.6906C65.7348 77.8197 65.4237 77.8166 65.3972 77.6875C65.5108 77.6875 65.6259 77.6875 65.7394 77.6906Z" fill="#931614"/>
<path d="M66.3166 77.7805C66.2823 77.7805 66.2341 77.7851 66.203 77.7805C66.1486 77.7711 66.1019 77.7338 66.0817 77.6934C66.1797 77.6996 66.2792 77.6965 66.3181 77.7805H66.3166Z" fill="#931614"/>
<path d="M71.4607 78.4789C71.4203 78.4633 71.3814 78.4493 71.3409 78.4338C71.3783 78.4182 71.4141 78.4042 71.4514 78.3887C71.4452 78.4136 71.4623 78.4462 71.4607 78.4773V78.4789Z" fill="#BF1E1D"/>
<path d="M127.352 53.293C127.209 53.5605 127.011 53.4516 127.307 53.6601C128.408 54.441 129.698 54.9185 130.911 55.5641C129.45 56.5954 127.554 57.6221 125.911 58.2303C124.158 58.8774 123.527 59.1232 123.541 57.0854C123.545 56.3823 123.659 55.2125 124.286 54.7505C124.98 54.2419 126.596 53.517 127.352 53.293Z" fill="#330F0C"/>
<path d="M115.754 63.3483C115.152 63.0901 114.834 60.7817 115.066 60.1703C115.276 59.6305 117.143 58.4499 117.614 59.055C117.809 59.3054 118.177 61.9219 118.099 62.2641C117.994 62.7448 116.261 63.5677 115.754 63.3483Z" fill="#330F0C"/>
<path d="M106.635 64.2585C106.987 64.1247 107.603 63.9054 107.817 64.2818C108.018 64.6334 108.295 66.3383 108.189 66.7552C108.03 67.3805 106.722 68.1069 106.103 68.0649C105.176 68.0027 105.097 65.9447 105.237 65.3271C105.331 64.9103 106.218 64.4203 106.635 64.26V64.2585Z" fill="#330F0C"/>
<path d="M112.524 61.7504C112.7 61.8484 112.814 62.2419 112.851 62.441C112.93 62.8672 113.033 63.6777 113.062 64.107C113.142 65.2332 111.633 65.6984 110.648 65.7808C110.018 65.5973 109.866 63.2328 110.132 62.7506C110.373 62.3197 112.082 61.5077 112.524 61.7519V61.7504Z" fill="#330F0C"/>
<path d="M102.281 66.3191C102.771 66.1791 103.129 66.4933 103.283 66.8682C103.437 67.2431 103.555 68.5716 103.43 68.9558C103.225 69.6076 101.376 70.3714 100.868 69.676C100.599 69.3089 100.4 67.8576 100.55 67.4173C100.662 67.0922 101.92 66.4218 102.281 66.3176V66.3191Z" fill="#330F0C"/>
<path d="M143.244 54.752C143.169 54.8328 143.093 54.9153 143.018 54.9962C143.085 54.9293 143.177 54.8266 143.244 54.752Z" fill="#931614"/>
<path d="M142.657 55.291C142.666 55.4419 142.54 55.4792 142.431 55.5337C142.427 55.3688 142.568 55.3626 142.657 55.291Z" fill="#931614"/>
<path d="M142.791 55.2382C142.798 55.232 142.8 55.1247 142.882 55.0469C142.851 55.1107 142.822 55.1744 142.791 55.2382Z" fill="#931614"/>
<path d="M106.42 78.4752C106.509 78.738 106.612 79.2218 106.63 79.4909C106.727 80.7883 106.151 82.9365 104.224 82.756C102.214 82.5647 101.1 80.1038 101.06 78.7132C101.055 78.5669 101.177 77.6056 101.214 77.4734C101.315 77.1156 101.962 76.4265 102.315 76.2072C104.218 75.0203 105.895 76.9243 106.42 78.4767V78.4752Z" fill="#330F0C"/>
<path d="M101.214 77.4746C101.178 77.6068 101.055 78.5682 101.06 78.7144C100.805 78.7611 100.551 78.8077 100.296 78.8528C100.116 78.7719 100.042 78.3146 100.042 78.1513C100.1 78.1295 100.145 78.0828 100.15 78.0299C100.154 77.9662 100.111 77.8837 100.109 77.8137C100.238 77.4311 100.837 77.5508 101.215 77.4746H101.214Z" fill="#F4EEE4"/>
<path d="M107.106 79.209C106.948 79.3039 106.789 79.3988 106.63 79.4936C106.61 79.2245 106.507 78.7408 106.42 78.4779C106.427 78.4001 106.433 78.3223 106.439 78.2461C106.931 78.439 106.828 78.8559 107.108 79.2105L107.106 79.209Z" fill="#F4EEE4"/>
<path d="M100.041 78.1506C100.041 78.0993 100.089 78.048 100.148 78.0293C100.144 78.0822 100.099 78.1289 100.041 78.1506Z" fill="#E83B35"/>
<path d="M59.749 77.5023C59.6479 77.6237 59.5546 77.4976 59.525 77.4961C59.5997 77.4976 59.6744 77.5008 59.749 77.5023Z" fill="#931614"/>
<path d="M61.781 73.934C61.781 73.934 62.6786 73.4782 64.5095 70.8462L62.747 70.49C63.7161 69.3296 64.3088 68.6871 64.6106 68.4258C64.6106 68.4258 61.9832 69.0931 61.0063 71.5789L62.4872 71.9024L61.781 73.9356V73.934Z" fill="white"/>
<defs>
<linearGradient id="paint0_linear_1182_12107" x1="84.1666" y1="24" x2="84.1666" y2="145" gradientUnits="userSpaceOnUse">
<stop stop-color="#FA6E68" stop-opacity="0.5"/>
<stop offset="1" stop-color="white" stop-opacity="0"/>
</linearGradient>
</defs>
</svg>
