<svg width="169" height="168" viewBox="0 0 169 168" fill="none" xmlns="http://www.w3.org/2000/svg">
<circle cx="83.8334" cy="84.5" r="60.5" fill="url(#paint0_linear_1182_12268)"/>
<path d="M78.5675 52.0129C80.2593 52.3292 81.568 52.8859 83.1063 53.6023C84.6818 54.8925 86.2138 56.5052 87.2528 58.2699C87.6622 58.9661 87.9088 59.7694 88.4019 60.4113C87.8111 60.8874 86.9101 61.8007 86.3953 62.3776C85.6308 63.2351 84.964 64.2058 84.398 65.206L84.2414 65.2541C81.1478 59.1274 73.1013 57.1068 67.4522 61.1386C59.7872 66.6094 60.3129 78.5977 69.3177 82.2588C73.8984 84.1212 79.0017 82.9024 82.2736 79.2505C82.3589 79.6056 82.4519 80.0072 82.5744 80.3499C83.1528 81.9704 84.1903 84.0064 85.2246 85.3788C81.23 91.8591 77.4122 98.679 71.8592 103.978L71.6065 104.032C70.0465 102.078 68.609 100.016 67.0537 98.0602C66.9669 97.9501 66.7156 97.7408 66.6893 97.7098C65.7883 96.6414 64.8765 95.224 64.0407 94.0781C64.2035 93.982 64.0408 93.7509 63.9803 93.647C63.1941 92.315 62.2435 91.0713 61.4557 89.7408C58.0117 83.9258 55.1104 77.3075 56.0331 70.3713C57.4411 59.7895 66.9281 51.5166 77.6991 52.0113C77.972 52.0237 78.3224 52.2083 78.5659 52.0144L78.5675 52.0129Z" fill="#D42129"/>
<path d="M85.2245 85.3766C85.4928 85.7317 86.1006 86.3969 86.434 86.7008C87.3257 87.5165 88.4887 88.2701 89.4501 89.0191L89.4284 89.2362C85.0508 95.9522 79.9289 102.133 75.3125 108.675C75.2117 108.744 74.7652 108.251 74.6706 108.147C73.3262 106.7 71.7972 104.687 70.5504 103.113C69.1812 101.383 67.8228 99.5963 66.6892 97.706C66.7156 97.737 66.9668 97.9463 67.0537 98.0564C68.609 100.012 70.0465 102.074 71.6064 104.028L71.8592 103.974C77.4106 98.6736 81.23 91.8553 85.2245 85.375V85.3766Z" fill="#9C2821"/>
<path d="M74.5574 111.4C75.6011 111.712 76.5624 110.885 77.2028 110.15C77.651 109.636 80.1119 106.12 80.3585 106.044C80.5539 106.015 80.7524 106.023 80.9493 106.032C82.0859 106.078 83.3203 106.348 84.3422 106.437C86.541 106.629 92.2429 108.015 93.578 109.819C94.7007 111.337 93.0121 112.385 91.8087 113.028C90.1371 113.922 88.3104 114.343 86.5116 114.73C86.7101 114.545 86.5225 114.59 86.3984 114.579C82.6194 114.235 77.6991 113.636 74.559 111.4H74.5574Z" fill="#737687"/>
<path d="M78.5676 52.0135C78.3241 52.2073 77.9737 52.0228 77.7008 52.0104C66.9298 51.5157 57.4411 59.7886 56.0347 70.3704C55.112 77.3051 58.0134 83.9249 61.4574 89.7399C62.2452 91.0704 63.1941 92.3141 63.9819 93.6461C64.0439 93.75 64.2052 93.981 64.0424 94.0772C58.2072 86.0679 51.8215 76.4785 55.064 66.072C58.2351 55.8964 68.0586 50.0488 78.5676 52.0151V52.0135Z" fill="#FD5653"/>
<path d="M76.2229 61.8467C74.9978 61.825 73.627 62.4608 72.5974 63.1012C68.8851 65.4133 66.9995 69.7164 67.7733 74.0412C68.2059 76.4587 69.4542 79.1988 71.6825 80.4207C71.5662 80.4952 71.3398 80.4688 71.2095 80.4409C70.4698 80.2781 68.5067 79.2438 67.9066 78.7507C63.6546 75.243 63.3166 69.3473 66.7684 65.1419C68.9859 62.4391 72.0485 61.0698 75.5685 61.6327C75.767 61.6637 76.1298 61.6622 76.2229 61.8483V61.8467Z" fill="#870307"/>
<path d="M108.677 95.2109C109.013 95.5862 109.179 96.2018 109.359 96.6841C110.493 99.7374 111.668 102.902 112.688 105.99C113.158 107.413 113.639 108.373 112.927 109.863C112.637 110.471 112.115 110.84 111.778 111.4C111.28 111.392 111.031 111.324 110.567 111.174L108.809 106.236C107.697 103.276 107.05 100.114 106.081 97.0857C106.02 96.895 105.938 96.6422 105.8 96.4964C106.757 96.0669 107.7 95.6203 108.675 95.2109H108.677Z" fill="#D42129"/>
<path d="M111.78 111.401C112.117 110.841 112.639 110.471 112.929 109.864C113.639 108.373 113.16 107.414 112.69 105.991C111.67 102.903 110.496 99.7385 109.361 96.6852C109.181 96.2029 109.015 95.5873 108.679 95.2121C109.221 94.9841 109.758 94.6042 110.369 94.5391C110.608 94.6073 111.547 97.2434 111.705 97.6699C112.706 100.348 113.726 103.063 114.656 105.764C115.219 107.402 115.719 108.649 114.503 110.151C113.793 111.029 112.909 111.42 111.782 111.401H111.78Z" fill="#9C2821"/>
<path d="M105.802 96.4961C105.94 96.6419 106.022 96.8946 106.083 97.0853C107.052 100.114 107.699 103.276 108.81 106.236L110.569 111.173C109.581 110.851 109.192 110.415 108.741 109.485L104.286 97.2172C104.337 96.8853 105.503 96.631 105.802 96.4961Z" fill="#FD5653"/>
<path d="M107.387 90.2949L108.289 92.5388L108.268 92.6395L104.668 94.1515L103.791 91.6518L107.387 90.2949Z" fill="#48505E"/>
<path d="M88.4018 60.4086C87.9072 59.7667 87.6621 58.9634 87.2528 58.2672C86.2153 56.5025 84.6833 54.8898 83.1063 53.5996C85.2292 54.5889 87.1427 55.9442 88.8484 57.5786C89.309 58.0206 89.7013 58.613 90.1836 59.044C90.2704 59.1448 90.2022 59.165 90.1401 59.2317C89.816 59.579 88.9973 59.9186 88.639 60.3063C88.5879 60.3714 88.439 60.3776 88.4018 60.4071V60.4086Z" fill="#870307"/>
<path d="M117.055 105.329C115.582 101.159 113.859 97.0685 112.513 92.8491C112.366 92.5452 112.065 92.2289 111.755 92.094C111.378 91.9311 111.04 92.0149 110.68 91.8831L109.513 88.9662C109.522 88.7786 111.056 87.6311 111.326 87.383C116.804 82.3511 118.386 73.5556 115.323 66.8148C111.834 59.1328 103.502 55.1444 95.2714 57.1045C94.3642 57.32 93.4866 57.6689 92.6105 57.9759C89.5882 54.4109 85.7162 51.415 81.1975 50.0256C67.8151 45.9132 54.2141 54.6063 51.961 68.2647C49.7513 81.6687 60.4866 93.5454 67.7485 103.571L67.8244 103.758C67.3638 103.808 66.8956 103.85 66.4381 103.923C63.5647 104.375 60.3517 105.014 57.7124 106.242C55.419 107.309 52.3751 109.559 54.0436 112.434C55.8191 115.495 61.738 116.989 65.0115 117.579C72.3524 118.904 81.2036 118.803 88.4065 116.872C91.5792 116.022 99.0163 113.154 95.8777 108.728C93.9968 106.075 88.3321 104.64 85.2556 104.144L82.0472 103.758L91.5932 90.458C91.7871 90.3448 92.8616 90.9247 93.1485 91.0302C95.4994 91.8908 97.8858 92.2475 100.395 92.187C100.682 92.1808 101.097 91.9668 101.342 92.2165C101.781 92.6662 101.984 94.5347 102.46 95.1116C101.905 95.752 101.556 96.1474 101.642 97.0623C101.735 98.0548 102.909 100.499 103.307 101.601C104.337 104.458 105.283 107.936 106.523 110.64C108.547 115.052 115.072 114.911 117.088 110.39C117.973 108.402 117.747 107.284 117.055 105.327V105.329ZM84.3422 106.435C86.5411 106.627 92.2429 108.013 93.5781 109.817C94.7008 111.335 93.0121 112.383 91.8088 113.027C90.1372 113.92 88.3104 114.342 86.5117 114.728C84.6121 115.134 82.9622 115.416 80.9897 115.56C80.7773 115.643 80.4252 115.692 80.1942 115.711C76.992 115.974 73.4441 115.965 70.2466 115.711C69.9473 115.688 69.6371 115.664 69.3394 115.635C68.5811 115.562 67.8121 115.508 67.0693 115.332C65.5884 115.19 64.1167 114.909 62.6808 114.5C61.8791 114.272 61.0573 113.996 60.2602 113.743C59.2166 113.411 58.0753 113.009 57.1976 112.304C55.8222 111.198 55.9556 110.221 57.3093 109.204C58.2165 108.522 59.2476 108.083 60.3347 107.767C60.3579 107.76 60.3874 107.773 60.4107 107.767C61.1441 107.405 62.0327 107.204 62.8313 107.01C64.2703 106.663 65.731 106.422 67.1933 106.19L69.5875 106.042C69.9178 106.267 70.1675 106.566 70.4358 106.858C71.8081 108.35 72.8967 110.217 74.5575 111.398C75.6011 111.71 76.5625 110.884 77.2029 110.149C77.651 109.634 80.112 106.118 80.3585 106.042C80.5539 106.013 80.7524 106.021 80.9494 106.03C82.086 106.076 83.3203 106.346 84.3422 106.436V106.435ZM89.4285 89.2361C85.0509 95.952 79.9274 102.133 75.3126 108.675C75.2118 108.744 74.7653 108.25 74.6707 108.147C73.3278 106.7 71.7972 104.687 70.5505 103.113C69.1813 101.381 67.8229 99.5961 66.6893 97.7059C65.7884 96.6374 64.8766 95.2201 64.0408 94.0742C58.2056 86.0649 51.8199 76.4755 55.0624 66.0689C58.2335 55.8934 68.057 50.0458 78.5659 52.012C80.2577 52.3284 81.5665 52.8851 83.1048 53.6015C85.2277 54.5908 87.1412 55.9461 88.847 57.5805C89.3075 58.0225 89.6998 58.6148 90.1821 59.0459C90.2689 59.1467 90.2007 59.1669 90.1387 59.2335C89.8146 59.5809 88.9958 59.9205 88.6376 60.3082C88.5849 60.3733 88.4376 60.3795 88.4004 60.409C87.8096 60.885 86.9086 61.7984 86.3954 62.3752C85.6309 63.2327 84.9641 64.2035 84.3981 65.2037L84.2414 65.2502C81.1478 59.1234 73.1014 57.1029 67.4523 61.1347C59.7873 66.6055 60.313 78.5938 69.3178 82.2549C73.8985 84.1173 79.0017 82.8984 82.2736 79.2466C82.3589 79.6017 82.452 80.0033 82.5745 80.346C83.1529 81.9665 84.1903 84.0025 85.2246 85.3749C85.4929 85.73 86.1007 86.3952 86.4341 86.6992C87.3258 87.5148 88.4888 88.2684 89.4502 89.0174L89.4285 89.2345V89.2361ZM81.3215 76.8958C79.1769 80.3631 74.6505 81.0454 71.8702 77.8866C67.46 72.8764 70.456 64.3229 77.265 63.8375C79.9709 63.6452 82.1899 65.3122 82.9528 67.8553C82.3124 69.5797 81.7681 71.3769 81.6642 73.23C81.5991 74.41 81.9403 75.8925 81.32 76.8958H81.3215ZM67.7717 74.041C68.2043 76.4585 69.4526 79.1985 71.681 80.4205C71.5647 80.4949 71.3382 80.4685 71.2064 80.4406C70.4668 80.2778 68.5021 79.2435 67.9035 78.7504C63.6516 75.2427 63.3135 69.3471 66.7654 65.1416C68.9844 62.4388 72.0454 61.0695 75.5654 61.6324C75.7639 61.6635 76.1268 61.6619 76.2183 61.848C74.9932 61.8263 73.6224 62.4621 72.5927 63.1025C68.8804 65.4145 66.9948 69.7177 67.7686 74.0425L67.7717 74.041ZM84.8447 79.2466C82.6365 72.543 85.7456 64.8579 91.7297 61.3177C93.0695 60.5253 94.6651 59.8445 96.1926 59.5018C98.2317 59.0444 100.165 59.0692 102.093 59.4258C102.606 59.5204 103.217 59.5096 103.682 59.8042C106.478 60.35 109.829 63.0172 111.461 65.3029C117.127 73.2486 114.149 84.4801 105.222 88.3894C97.1137 91.9404 87.5847 87.5675 84.8447 79.2466ZM107.385 90.2952L108.288 92.539L108.265 92.6398L104.665 94.1517L103.788 91.652L107.384 90.2952H107.385ZM114.5 110.15C113.79 111.028 112.906 111.419 111.778 111.4C111.281 111.392 111.031 111.324 110.569 111.173C109.581 110.851 109.192 110.414 108.741 109.485L104.286 97.2174C104.337 96.8856 105.503 96.6312 105.804 96.4963C106.76 96.0668 107.703 95.6202 108.679 95.2108C109.221 94.9829 109.758 94.603 110.369 94.5378C110.608 94.6061 111.547 97.2422 111.705 97.6686C112.706 100.347 113.726 103.062 114.656 105.763C115.221 107.401 115.719 108.647 114.503 110.15H114.5Z" fill="#2B2B2B"/>
<path d="M102.096 59.4297C100.167 59.0731 98.2333 59.0482 96.1957 59.5057C94.6667 59.8484 93.071 60.5291 91.7328 61.3215C85.7503 64.8633 82.6412 72.5484 84.8478 79.2505C84.9904 79.1791 84.8959 78.9946 84.8757 78.8845C83.9376 73.8479 86.3923 66.8807 90.3357 63.5933C93.4184 61.0223 98.3185 59.4685 102.324 59.6577C102.777 59.6794 103.242 59.7228 103.685 59.8096C103.222 59.515 102.609 59.5259 102.096 59.4313V59.4297Z" fill="#737687"/>
<path d="M86.3983 114.578C82.6193 114.234 77.699 113.635 74.5589 111.399C72.8981 110.217 71.8095 108.35 70.4372 106.859C70.1689 106.567 69.9178 106.269 69.589 106.043L67.1948 106.19C65.7325 106.423 64.2701 106.663 62.8327 107.011C62.0341 107.204 61.1455 107.406 60.4121 107.767C60.3888 107.774 60.3594 107.761 60.3361 107.767C59.2491 108.084 58.2163 108.523 57.3107 109.205C55.957 110.224 55.8236 111.199 57.199 112.305C58.0767 113.01 59.218 113.412 60.2616 113.744C61.0587 113.996 61.8806 114.272 62.6823 114.5C64.1182 114.908 65.5882 115.189 67.0707 115.333C67.8134 115.508 68.5826 115.563 69.3409 115.635C69.6402 115.663 69.9488 115.687 70.248 115.711C73.4455 115.966 76.9935 115.974 80.1956 115.711C80.4267 115.693 80.7771 115.643 80.9911 115.561C82.9651 115.418 84.615 115.136 86.5131 114.728C86.7115 114.544 86.5239 114.589 86.3999 114.578H86.3983Z" fill="#CCCCCC"/>
<path d="M100.582 61.3179C112.856 62.3957 116.792 78.8111 106.658 85.5116C98.1665 91.1266 87.1148 85.8714 86.2837 75.7672C86.2728 75.6415 86.2124 75.5113 86.2046 75.3547C86.155 74.1979 86.3194 73.055 86.4341 71.9091C87.8716 66.1095 92.2414 61.8855 98.3123 61.3179C99.1699 61.2373 99.7281 61.2435 100.582 61.3179ZM91.7313 82.0474C94.2666 84.6587 97.4579 85.7876 101.113 85.1488C102.299 84.941 103.549 84.4572 104.593 83.8632C106.075 83.0197 107.39 81.7512 108.3 80.3075C108.855 79.4283 109.58 78.0125 109.662 76.9782C109.688 76.9581 109.725 76.9333 109.738 76.9022C109.817 76.6976 109.736 76.6479 109.738 76.5999C109.738 76.5751 109.736 76.5487 109.738 76.5239C109.897 76.2975 109.93 75.9253 109.964 75.6524C110.167 73.9885 109.922 72.0192 109.285 70.4716C108.575 68.7488 107.674 67.3718 106.26 66.2351C103.684 64.1665 100.874 63.233 97.5432 63.8362C89.061 65.3714 85.7193 75.8524 91.7344 82.0458L91.7313 82.0474Z" fill="#2B2B2B"/>
<path d="M86.2838 75.7698C86.0543 75.8117 86.138 75.6535 86.1318 75.5077C86.0837 74.2734 86.138 73.1088 86.4342 71.9102C86.3195 73.0561 86.1551 74.199 86.2047 75.3558C86.2109 75.5124 86.2729 75.6411 86.2838 75.7682V75.7698Z" fill="#737687"/>
<path d="M111.462 65.3048C109.831 63.0191 106.48 60.352 103.684 59.8061C103.24 59.7193 102.775 59.6759 102.322 59.6542C98.3169 59.465 93.4167 61.0203 90.334 63.5898C86.3906 66.8772 83.9359 73.846 84.874 78.881C84.8942 78.9911 84.9887 79.1757 84.8461 79.247C87.5861 87.5679 97.1151 91.9408 105.224 88.3898C114.151 84.4805 117.128 73.249 111.462 65.3033V65.3048ZM106.658 85.5133C98.1664 91.1283 87.1147 85.873 86.2836 75.7688C86.0541 75.8107 86.1378 75.6525 86.1316 75.5068C86.0835 74.2724 86.1363 73.1079 86.434 71.9092C87.8715 66.1096 92.2413 61.8856 98.3106 61.3181C99.1682 61.2374 99.7264 61.2436 100.581 61.3181C112.854 62.3958 116.79 78.8128 106.656 85.5117L106.658 85.5133Z" fill="#48505E"/>
<path d="M106.256 66.2378C106.466 66.8333 106.847 67.3481 107.101 67.9265C110.614 75.897 103.643 84.7219 95.0434 83.3124C93.8308 83.1139 92.8135 82.5742 91.7312 82.0486C85.7161 75.8551 89.0578 65.3741 97.54 63.8389C100.871 63.2357 103.681 64.1692 106.256 66.2378ZM97.0127 65.4997C94.5564 65.5943 90.6069 69.6106 90.4441 72.0281C90.3479 73.4609 91.573 74.2967 92.9174 73.8191C94.2789 73.3353 98.0765 68.9577 98.4673 67.5668C98.765 66.5046 98.1711 65.4563 97.0127 65.4997Z" fill="#CCCCCC"/>
<path d="M109.662 76.9778C109.663 76.9532 109.662 76.927 109.662 76.9023H109.737C109.725 76.9331 109.688 76.9578 109.662 76.9778Z" fill="#737687"/>
<path d="M109.962 75.6536C110.164 73.9897 109.921 72.0204 109.283 70.4728C108.573 68.75 107.672 67.373 106.256 66.2363C106.466 66.8318 106.847 67.3466 107.101 67.925C110.614 75.8955 103.643 84.7204 95.0434 83.3108C93.8308 83.1124 92.8136 82.5727 91.7312 82.047C94.2665 84.6584 97.4578 85.7873 101.111 85.1484C102.297 84.9406 103.547 84.4568 104.591 83.8629C106.073 83.0193 107.388 81.7509 108.299 80.3072C108.854 79.4279 109.578 78.0122 109.66 76.9779C109.662 76.9531 109.66 76.9267 109.66 76.9019H109.736C109.815 76.6972 109.735 76.6476 109.736 76.5995C109.736 76.5747 109.735 76.5483 109.736 76.5235C109.894 76.2971 109.928 75.925 109.962 75.652V75.6536Z" fill="#737687"/>
<path d="M97.0127 65.4975C98.1726 65.4525 98.7666 66.5023 98.4673 67.5645C98.0765 68.9555 94.2773 73.3315 92.9174 73.8169C91.573 74.2945 90.3479 73.4587 90.444 72.0258C90.6068 69.6083 94.5564 65.5921 97.0127 65.4975Z" fill="#FBFAF8"/>
<defs>
<linearGradient id="paint0_linear_1182_12268" x1="83.8334" y1="24" x2="83.8334" y2="145" gradientUnits="userSpaceOnUse">
<stop stop-color="#FA6E68" stop-opacity="0.5"/>
<stop offset="1" stop-color="white" stop-opacity="0"/>
</linearGradient>
</defs>
</svg>
