<svg width="169" height="168" viewBox="0 0 169 168" fill="none" xmlns="http://www.w3.org/2000/svg">
<circle cx="84.1666" cy="84.5" r="60.5" fill="url(#paint0_linear_1182_12321)"/>
<path d="M134.885 115.93C134.476 116.753 133.947 117.199 133.183 117.72C131.557 118.829 129.611 119.462 127.665 119.637H41.5872C40.1358 119.486 38.7063 119.105 37.3965 118.459C36.4881 118.013 35.1736 117.327 34.8407 116.392C33.8078 115.381 32.5572 113.565 32.0096 112.226C31.6099 111.251 30.7838 108.656 31.3702 107.774C31.448 107.659 31.9147 107.254 32.0065 107.254H40.2182C40.2307 107.254 40.3925 107.093 40.3925 107.08V51.9123C40.3925 50.5294 42.8938 48.2474 44.3778 48.3812C71.5518 48.4729 98.7585 48.2194 125.912 48.5087C127.329 48.7343 129.216 50.8716 129.216 52.2607V107.082C129.216 107.094 129.378 107.256 129.39 107.256H137.37C137.685 107.256 138.085 107.906 138.125 108.236C138.486 111.232 136.443 113.708 134.885 115.93Z" fill="#2B2B2B"/>
<path d="M125.632 50.699C126.285 50.9572 126.875 51.4799 127.02 52.2032C127.071 70.5292 127.071 88.8412 127.02 107.141C102.188 107.243 76.1841 107.242 51.3217 107.141C50.1457 107.225 48.8094 106.344 48.0954 105.378C47.845 105.041 47.2445 104.053 47.5868 103.731L122.393 103.67L122.505 103.378C123.395 103.026 123.845 102.222 123.901 101.29V56.201C123.837 55.0266 123.076 54.0279 121.861 53.933H47.8559C46.9536 53.9594 46.2039 54.5101 45.8772 55.3455L45.5972 55.4419C45.549 55.6799 45.4557 55.8246 45.2426 55.6488C45.0512 55.4917 45.0154 54.0357 45.0388 53.7043C45.1274 52.4863 45.6377 50.8203 47.0252 50.6477C73.2301 50.5823 99.4335 50.601 125.632 50.7006V50.699Z" fill="#D42129"/>
<path d="M42.1266 109.685C52.4384 109.669 62.7533 109.697 73.0651 109.685L73.2938 109.803L76.646 113.622L77.1376 113.941L93.0213 113.913L93.306 113.735L96.8884 109.685H135.575C135.105 111.862 133.861 113.595 132.105 114.889L131.383 115.121H46.1011C44.3651 114.933 42.8329 113.657 42.1687 112.063C41.9089 111.441 41.52 110.092 42.1251 109.686L42.1266 109.685Z" fill="#D42129"/>
<path d="M125.632 50.6997L47.0376 50.6934C45.353 51.4448 45.0527 53.6039 45.3701 55.2652C45.4167 55.5094 45.244 55.6696 45.5972 55.441C45.692 56.617 45.7761 57.7961 45.7745 58.9768C45.6687 73.1214 45.6859 87.2692 45.7092 101.414C45.7092 102.341 46.4496 103.352 47.4016 103.445L122.249 103.439L122.393 103.671L47.6801 103.788C47.7827 105.068 49.0272 106.21 50.1456 106.7C50.3043 106.77 51.2594 107.141 51.3232 107.141H127.021V52.2039L127.136 107.257H42.5328C42.5203 107.257 42.3585 107.095 42.3585 107.082V52.4917C42.3585 52.3174 42.8781 51.3872 43.0477 51.2145C43.3852 50.8723 44.0059 50.5923 44.4928 50.5783C71.3214 50.8381 98.1703 50.2485 124.996 50.5814C125.192 50.5845 125.511 50.5068 125.63 50.6997H125.632Z" fill="#870307"/>
<path d="M42.1267 109.685C41.6289 112.06 43.743 114.659 46.1183 114.888H132.108C130.638 115.974 129.059 116.49 127.197 116.629C98.3803 116.507 69.5263 116.848 40.7329 116.457C37.2687 115.767 34.727 113.094 33.7983 109.744C36.5688 109.632 39.3532 109.689 42.1267 109.685Z" fill="#870307"/>
<path d="M93.7105 109.684C93.7961 109.757 93.2158 110.443 93.1287 110.548C92.732 111.024 92.0492 111.947 91.4612 112.004L78.2716 111.995C78.0694 111.956 77.1531 110.917 76.9416 110.665C76.716 110.396 76.3443 110.026 76.3598 109.685H93.7089L93.7105 109.684Z" fill="#B81925"/>
<path d="M122.393 103.669L47.3846 103.675C46.2817 103.569 45.5163 102.477 45.4774 101.418C45.563 86.0956 45.325 70.7438 45.5972 55.4403C45.9301 54.4183 46.7577 53.7416 47.8481 53.7012H121.877C123.243 53.8225 124.044 54.8725 124.133 56.187V101.301C124.03 102.486 123.521 103.261 122.393 103.669Z" fill="#360401"/>
<path d="M122.509 56.018C122.617 71.0509 122.622 86.0931 122.522 101.148L122.356 101.327C114.213 100.824 106.03 100.379 97.8047 99.9905C88.3749 99.3122 78.4598 98.4536 69.8312 94.784C69.6243 94.5351 69.8343 94.3734 70.4612 94.3002L70.8065 93.9938C75.6723 92.8769 79.7649 88.176 80.1912 83.2885C80.1912 83.2885 80.0325 82.9105 79.7152 82.156C75.6427 82.2431 71.5314 82.2774 67.3796 82.2618C66.9207 82.1483 66.5847 81.7874 66.5256 81.316C66.5163 77.4707 66.5209 73.6191 66.5645 69.7738C66.5676 69.458 66.6625 69.1531 66.7605 68.856C66.6532 68.842 66.5443 68.7954 66.5225 68.6958C66.3078 67.6505 66.2005 67.2165 64.9265 67.4778C60.2147 68.4407 56.2698 74.5105 55.8249 79.0916L55.5418 79.4976C55.517 79.6267 55.3101 80.476 55.1296 80.2987C54.229 79.4074 53.112 75.3863 52.7076 73.924C51.1582 68.3085 50.5018 62.0847 50.5967 56.3665C50.6169 55.8189 50.7989 55.472 51.1458 55.3258C74.6036 55.1656 98.0692 55.4503 121.529 55.3196C121.966 55.2994 122.44 55.5809 122.505 56.0196L122.509 56.018Z" fill="#FEECEA"/>
<path d="M51.149 55.3251C50.9654 55.7467 50.8379 56.19 50.7974 56.6504C50.6154 58.78 51.0354 62.5258 51.2656 64.7487C51.8147 70.0531 53.0032 75.3358 55.1981 80.1907L55.5434 79.4969L55.7347 79.9231C54.9896 87.9855 61.691 95.4958 70.0085 94.1424L70.4628 94.3011L69.769 94.5313C70.6945 94.7709 71.5454 95.2718 72.4554 95.6046C75.4234 96.692 78.771 97.4355 81.8915 97.966C94.647 100.133 107.501 100.156 120.373 100.889C121.051 100.928 121.83 101.03 122.507 101.125V56.0204C122.7 56.1402 122.624 56.4591 122.625 56.6551C122.812 71.6491 122.554 86.696 122.537 101.676C122.358 102.018 122.033 102.191 121.647 102.174L47.5292 102.144L47.0361 101.597L46.9817 56.3082C47.0346 55.9209 47.2196 55.448 47.6458 55.3531C48.4376 55.1773 50.2281 55.3344 51.149 55.3282V55.3251Z" fill="#CCCCCC"/>
<path d="M71.1736 77.2588C70.9139 77.2542 70.7054 77.0426 70.7054 76.7828V62.5619C70.7054 62.2991 70.9186 62.0859 71.1815 62.0859C79.2843 62.0859 85.8767 68.6784 85.8767 76.7813C85.8767 76.8622 85.8768 76.9446 85.8752 77.0255C85.8706 77.2853 85.659 77.4922 85.3992 77.4922C85.3961 77.4922 71.1721 77.2573 71.1721 77.2573L71.1736 77.2588Z" fill="#FDBE3E"/>
<path d="M71.1814 62.5614C78.9825 62.5614 85.4023 68.9812 85.4023 76.7823C85.4023 76.86 85.4023 76.9394 85.4007 77.0172L71.1829 76.7823V62.5614M71.1829 61.6094C70.6571 61.6094 70.231 62.0356 70.231 62.5614V76.7823C70.231 77.3018 70.6478 77.7249 71.1658 77.7343L85.3836 77.9692C85.3836 77.9692 85.3945 77.9692 85.3991 77.9692C85.6465 77.9692 85.8829 77.8727 86.0603 77.7016C86.2423 77.5258 86.3465 77.2863 86.3496 77.0327C86.3496 76.9487 86.3512 76.8647 86.3512 76.7823C86.3512 72.7549 84.7661 68.9516 81.8883 66.0738C79.0105 63.196 75.2071 61.6109 71.1798 61.6109L71.1829 61.6094Z" fill="#2B2B2B"/>
<path d="M67.2754 94.0431C59.8508 94.0431 53.8105 88.0028 53.8105 80.5782C53.8105 73.1535 59.8508 67.1133 67.2754 67.1133H67.3843C67.5103 67.1133 67.6316 67.1662 67.7203 67.2564C67.809 67.3466 67.8587 67.4679 67.8572 67.5939L67.7561 80.1022H80.2659C80.5287 80.1022 80.7419 80.3153 80.7419 80.5782C80.7419 88.0028 74.7016 94.0431 67.277 94.0431H67.2754Z" fill="#D42129"/>
<path d="M67.2754 67.5899C67.3112 67.5899 67.3453 67.5899 67.3811 67.5899L67.2754 80.5788H80.2643C80.2643 87.7048 74.4014 93.5677 67.2754 93.5677C60.1494 93.5677 54.2865 87.7048 54.2865 80.5788C54.2865 73.4528 60.1494 67.5899 67.2754 67.5899ZM67.2738 66.6379C63.5731 66.6379 60.0793 68.0939 57.4349 70.7383C54.7905 73.3828 53.3345 76.8765 53.3345 80.5772C53.3345 84.2779 54.7905 87.7717 57.4349 90.4161C60.0793 93.0605 63.5731 94.5165 67.2738 94.5165C70.9745 94.5165 74.4682 93.0605 77.1127 90.4161C79.7493 87.7794 81.2038 84.2997 81.2131 80.6114C81.2131 80.599 81.2131 80.5881 81.2131 80.5757C81.2131 80.0499 80.7885 79.6237 80.2627 79.6237H68.232L68.33 67.5945C68.3347 67.0688 67.9116 66.6394 67.3858 66.6348H67.2723L67.2738 66.6379Z" fill="#2B2B2B"/>
<path d="M77.2372 88.7039C74.8759 91.6843 71.2265 93.5961 67.1292 93.5961C60.0156 93.5961 54.2477 87.8281 54.2477 80.7145C54.2477 75.365 57.5081 70.7776 62.1514 68.8301C60.4107 71.0265 59.3732 73.8032 59.3732 76.8194C59.3732 83.933 65.1412 89.701 72.2548 89.701C74.0219 89.701 75.7035 89.3463 77.2372 88.7039Z" fill="#870307"/>
<path d="M115.613 68.1523V93.2652H114.455L114.223 93.1843L114.227 75.6315C114.094 74.8195 113.158 74.6281 112.679 75.2892C112.575 81.205 112.559 87.113 112.629 93.0132L112.486 93.2652H107.046C106.964 93.2139 106.889 93.1423 106.892 93.049C107.02 89.5428 106.987 85.9246 106.956 82.3919C107.01 81.0837 105.726 80.2826 105.189 81.7697C105.134 85.5435 105.15 89.3001 105.235 93.0428L105.08 93.2668H99.525L99.2932 93.1875L99.2963 78.7597C99.2015 77.9243 98.1717 77.691 97.758 78.447C97.6646 82.843 97.6117 87.2608 97.5993 91.7003C97.7548 92.3319 97.7408 92.8546 97.5573 93.2683H92.0024L91.8702 93.0381C92.2186 90.7779 92.2668 88.0432 92.0288 85.7348C91.8733 84.2352 90.4717 84.0237 90.2757 85.2572L90.2679 92.7799L90.0362 92.9199C89.9008 92.7332 89.5026 92.5932 89.571 92.1701C89.767 88.499 89.3206 84.5775 89.5695 80.9359C89.5804 80.7788 89.6192 80.421 89.6908 80.3043C90.1015 80.1083 90.1932 80.4117 89.9692 81.2128L90.2368 81.1023C92.7599 78.4595 95.3826 75.9332 98.1017 73.5252L98.5637 73.6699L104.414 78.0488C104.769 78.1437 105.094 78.0021 105.39 77.621L105.892 77.4126C105.945 77.2912 106.001 77.1715 106.069 77.0595C106.138 76.9506 106.208 76.8463 106.298 76.7623C109.211 74.0401 112.066 71.2915 114.93 68.5179C115.018 68.4323 115.129 68.3701 115.245 68.3079C115.362 68.2457 115.487 68.199 115.613 68.1555V68.1523Z" fill="#D42129"/>
<path d="M115.613 68.1516C112.618 71.1896 109.129 74.6803 105.892 77.4103C105.354 77.821 105.124 77.7619 104.576 77.4445L98.5062 72.4994C96.4948 74.2261 94.6219 76.1099 92.8844 78.1507C92.1284 78.9814 91.2992 79.7234 90.397 80.3721C90.397 80.3721 90.1621 80.3487 89.6908 80.3021C88.8321 79.9287 88.339 79.3081 88.8803 78.3919L97.5573 69.7103C98.0442 69.3339 98.4424 69.141 99.0039 69.5423L105.372 74.7192C108.146 72.2319 110.624 69.4039 113.352 66.8745C113.735 66.5199 114.911 65.3656 115.323 65.3672C116.627 65.3719 116.624 67.0239 115.959 67.8639C115.847 68.0054 115.704 68.0567 115.613 68.1501V68.1516Z" fill="#2B2B2B"/>
<path d="M114.455 93.2638C113.962 93.9264 112.884 94.0773 112.488 93.2638C112.405 93.0942 112.352 92.9449 112.366 92.7504C112.435 86.9187 112.253 81.0527 112.459 75.2396C112.959 74.2907 114.335 74.5598 114.457 75.6113L114.454 93.2622L114.455 93.2638Z" fill="#62101B"/>
<path d="M99.5266 93.2624C99.0226 93.8986 97.9555 94.0744 97.5588 93.2624C97.4624 93.0648 97.4562 92.9637 97.4375 92.7491C97.0658 88.2644 97.7268 83.2742 97.439 78.7351C97.593 77.4284 99.3741 77.4253 99.5266 78.7351L99.5235 93.2608L99.5266 93.2624Z" fill="#62101B"/>
<path d="M107.049 93.2632C106.657 94.0254 105.447 94.0099 105.082 93.2632C104.985 93.0656 104.979 92.9645 104.96 92.7499C104.671 89.225 105.189 85.3127 104.962 81.7459C105.391 80.2183 107.001 80.4781 107.161 82.0974C107.494 85.4574 106.911 89.3339 107.167 92.7499C107.181 92.9443 107.133 93.0936 107.046 93.2632H107.049Z" fill="#62101B"/>
<path d="M92.0056 93.2632C91.6493 93.8138 91.0333 93.9367 90.4951 93.5587C90.198 93.3503 90.1778 93.1092 90.0393 92.9163L90.0502 85.2303C90.2477 83.8163 92.0662 83.9407 92.2389 85.4512C92.4147 86.9896 92.4147 91.0885 92.242 92.6285C92.2156 92.8696 92.1362 93.0625 92.0071 93.2616L92.0056 93.2632Z" fill="#62101B"/>
<path d="M105.892 77.4093C105.424 77.8044 105.058 78.5666 104.304 78.2478L98.4066 73.8393L98.0954 73.7242C95.409 76.1229 92.9621 78.7735 90.3768 81.2811C89.179 81.9593 89.9754 80.3742 89.9194 80.3042C89.8977 80.2762 89.7436 80.3275 89.6876 80.3042C89.8323 80.0693 90.2601 80.284 90.4468 80.0802C93.141 77.9958 95.5132 74.5082 98.1327 72.4906C98.2619 72.3911 98.3755 72.2698 98.5419 72.2324L104.577 77.1604C105.001 77.4964 105.377 77.568 105.89 77.4109L105.892 77.4093Z" fill="#870307"/>
<path d="M92.8595 84.5868C92.8595 83.7741 92.2006 83.1152 91.3879 83.1152C90.5752 83.1152 89.9164 83.7741 89.9164 84.5868V92.5808C89.9164 93.3935 90.5752 94.0523 91.3879 94.0523C92.2006 94.0523 92.8595 93.3935 92.8595 92.5808V84.5868Z" fill="#2B2B2B"/>
<path d="M99.8968 78.4188C99.8968 77.6061 99.238 76.9473 98.4253 76.9473C97.6126 76.9473 96.9537 77.6061 96.9537 78.4188V92.5822C96.9537 93.3949 97.6126 94.0537 98.4253 94.0537C99.238 94.0537 99.8968 93.3949 99.8968 92.5822V78.4188Z" fill="#2B2B2B"/>
<path d="M107.6 81.8427C107.6 81.0299 106.941 80.3711 106.128 80.3711C105.316 80.3711 104.657 81.0299 104.657 81.8427V92.5806C104.657 93.3934 105.316 94.0522 106.128 94.0522C106.941 94.0522 107.6 93.3934 107.6 92.5806V81.8427Z" fill="#2B2B2B"/>
<path d="M114.88 75.0184C114.88 74.2057 114.221 73.5469 113.408 73.5469C112.596 73.5469 111.937 74.2057 111.937 75.0184V92.5807C111.937 93.3934 112.596 94.0522 113.408 94.0522C114.221 94.0522 114.88 93.3934 114.88 92.5807V75.0184Z" fill="#2B2B2B"/>
<defs>
<linearGradient id="paint0_linear_1182_12321" x1="84.1666" y1="24" x2="84.1666" y2="145" gradientUnits="userSpaceOnUse">
<stop stop-color="#FA6E68" stop-opacity="0.5"/>
<stop offset="1" stop-color="white" stop-opacity="0"/>
</linearGradient>
</defs>
</svg>
