<svg width="168" height="168" viewBox="0 0 168 168" fill="none" xmlns="http://www.w3.org/2000/svg">
<circle cx="83.5001" cy="84.5" r="60.5" fill="url(#paint0_linear_1182_12357)"/>
<path d="M41.4742 87.4959C41.1179 87.4959 40.7757 87.3559 40.5221 87.1055C40.2639 86.8503 40.1193 86.5035 40.1193 86.141V86.0321C40.1162 85.875 40.1146 85.7179 40.1146 85.5577C40.1146 74.2783 44.7066 63.629 53.0444 55.5681C61.3697 47.5212 72.3628 43.0879 84.0014 43.0879C95.6401 43.0879 106.633 47.5197 114.959 55.5681C123.296 63.6274 127.888 74.2783 127.888 85.5577C127.888 86.3059 127.282 86.9126 126.534 86.9126H121.361C120.613 86.9126 120.006 86.3059 120.006 85.5577C120.006 66.3917 103.855 50.7988 84.003 50.7988C64.151 50.7988 47.9997 66.3917 47.9997 85.5577C47.9997 85.721 47.9997 85.8843 48.0028 86.0477C48.009 86.407 47.8706 86.7554 47.6201 87.0137C47.3697 87.2719 47.0259 87.4197 46.6666 87.4243C46.6666 87.4243 41.485 87.4943 41.4788 87.4943L41.4742 87.4959Z" fill="#2B2B2B"/>
<path d="M126.531 85.5587H126.517C125.911 63.4978 106.957 45.5295 83.9987 45.5295C61.0402 45.5295 41.8151 63.7544 41.4728 86.0331C41.4697 85.876 41.4682 85.7189 41.4682 85.5587C41.4682 63.0046 60.6669 44.4453 83.9987 44.4453C107.33 44.4453 126.529 63.0046 126.529 85.5587H126.531Z" fill="#FD5653"/>
<path d="M126.517 85.558H121.358C121.358 65.7465 104.496 49.4442 84.0002 49.4442C63.5042 49.4442 46.6419 65.748 46.6419 85.558C46.6419 85.7291 46.6419 85.9002 46.6451 86.0698L41.476 86.1398V86.0309C41.8182 63.7522 60.8799 45.5273 84.0017 45.5273C107.123 45.5273 125.915 63.4956 126.52 85.5565L126.517 85.558Z" fill="#D42129"/>
<path d="M81.4069 121.545C81.2015 121.545 81.0008 121.541 80.7955 121.54C80.5793 121.537 80.3709 121.448 80.22 121.294C80.0691 121.139 79.9835 120.93 79.9867 120.715L80.0021 119.634C80.0084 119.194 80.3646 118.839 80.8048 118.833C101.533 118.578 118.855 101.509 119.418 80.7859C119.431 80.3457 119.79 79.9941 120.232 79.9941H121.333C121.783 79.9941 122.147 80.3581 122.147 80.8077C122.147 91.6188 117.889 101.829 110.158 109.559C102.427 117.289 92.218 121.546 81.4069 121.546V121.545Z" fill="#2B2B2B"/>
<path d="M52.6991 66.3477H47.6809C45.8889 66.3477 44.142 66.8423 42.6316 67.7772C39.7647 69.5443 38.0535 72.6088 38.0535 75.9734V93.6243C38.0535 98.9319 42.3717 103.25 47.6793 103.25H52.6975C53.4458 103.25 54.0524 102.643 54.0524 101.895V67.7041C54.0524 66.9559 53.4458 66.3492 52.6975 66.3492L52.6991 66.3477Z" fill="#2B2B2B"/>
<path d="M125.37 67.7788C123.858 66.8423 122.111 66.3477 120.319 66.3477H115.301C114.553 66.3477 113.946 66.9543 113.946 67.7025V101.894C113.946 102.642 114.553 103.249 115.301 103.249H120.319C123.685 103.249 126.751 101.536 128.517 98.6674C129.452 97.157 129.945 95.4132 129.945 93.6228V75.9719C129.945 72.6072 128.234 69.5428 125.37 67.7772V67.7788Z" fill="#2B2B2B"/>
<path d="M52.6989 99.1782V101.891H47.6807C43.1136 101.891 39.4099 98.1873 39.4099 93.6202V75.9693C39.4099 72.992 40.9825 70.3818 43.3439 68.9258C42.5692 70.1842 42.1211 71.6667 42.1211 73.2549V90.9058C42.1211 95.4729 45.8265 99.1767 50.3952 99.1767H52.6989V99.1782Z" fill="#870307"/>
<path d="M52.6989 67.7012V99.1794H50.3952C45.828 99.1794 42.1211 95.4756 42.1211 90.9085V73.2576C42.1211 71.6694 42.5691 70.1869 43.3438 68.9285C44.6038 68.1476 46.0894 67.7012 47.6807 67.7012H52.6989Z" fill="#D42129"/>
<path d="M127.364 97.9552C125.908 100.32 123.298 101.894 120.319 101.894H115.301V67.7012H118.014V99.1794H123.032C124.62 99.1794 126.106 98.7314 127.364 97.9536V97.9552Z" fill="#870307"/>
<path d="M128.59 75.9725V93.6233C128.59 95.2116 128.142 96.6971 127.364 97.9556C126.106 98.7333 124.62 99.1813 123.032 99.1813H118.014V67.7031H120.318C121.909 67.7031 123.394 68.1511 124.654 68.9305C127.016 70.3865 128.588 72.9967 128.588 75.974L128.59 75.9725Z" fill="#D42129"/>
<path d="M80.2479 124.911C77.2877 124.911 74.8781 122.502 74.8781 119.542C74.8781 116.581 77.2877 114.172 80.2479 114.172H85.9242C88.8844 114.172 91.2939 116.581 91.2939 119.542C91.2939 122.502 88.8844 124.911 85.9242 124.911H80.2479Z" fill="#2B2B2B"/>
<path d="M85.9226 115.527H80.2479C78.0306 115.527 76.233 117.325 76.233 119.541C76.233 121.758 78.0306 123.556 80.2479 123.556H85.9226C88.14 123.556 89.9375 121.758 89.9375 119.541C89.9375 117.325 88.14 115.527 85.9226 115.527Z" fill="#D42129"/>
<path d="M103.473 102.817C114.228 92.0623 114.228 74.6252 103.473 63.8703C92.7183 53.1155 75.2813 53.1155 64.5264 63.8703C53.7715 74.6252 53.7715 92.0623 64.5264 102.817C75.2813 113.572 92.7183 113.572 103.473 102.817Z" fill="#2B2B2B"/>
<path d="M83.9998 109.507C98.45 109.507 110.164 97.7924 110.164 83.3422C110.164 68.892 98.45 57.1777 83.9998 57.1777C69.5496 57.1777 57.8353 68.892 57.8353 83.3422C57.8353 97.7924 69.5496 109.507 83.9998 109.507Z" fill="#FEECEA"/>
<path d="M103.757 100.501C98.958 106.018 91.8865 109.507 83.9998 109.507C69.5487 109.507 57.8353 97.7942 57.8353 83.3431C57.8353 75.4564 61.3245 68.3848 66.8421 63.5859C62.8396 68.181 60.4129 74.1902 60.4129 80.7655C60.4129 95.2166 72.1262 106.93 86.5773 106.93C93.1527 106.93 99.1618 104.503 103.757 100.501Z" fill="#CCCCCC"/>
<path d="M72.2305 88.9043H64.935V86.9101L67.3384 84.4726C68.1908 83.5968 68.785 82.9279 69.1194 82.4612C69.4539 81.9961 69.6219 81.4983 69.6219 80.9694C69.6219 80.4406 69.4835 80.0688 69.205 79.8526C68.9266 79.6363 68.5315 79.529 68.0197 79.529C67.2575 79.529 66.4283 79.5974 65.5308 79.7328L65.1217 79.7841L65.0019 77.961C66.1157 77.6203 67.2683 77.4492 68.4614 77.4492C70.8477 77.4492 72.0408 78.5226 72.0408 80.6708C72.0408 81.5123 71.8588 82.2388 71.4948 82.8532C71.1308 83.4661 70.4712 84.2112 69.5177 85.0854L67.5576 86.8588H72.2274V88.9043H72.2305Z" fill="#2B2B2B" stroke="black" stroke-width="2" stroke-linecap="round" stroke-linejoin="round"/>
<path d="M80.1047 88.9041V87.0467H75.3323V85.2563L78.1106 77.6543H80.7021L77.6859 85.0012H80.1063V81.8481H82.4583V85.0012H83.5317V87.0467H82.4583V88.9041H80.1063H80.1047Z" fill="#2B2B2B" stroke="black" stroke-width="2" stroke-linecap="round" stroke-linejoin="round"/>
<path d="M86.0034 88.7682L90.9128 76.666L92.9241 77.3816L88.0148 89.4838L86.0034 88.7682Z" fill="#2B2B2B" stroke="black" stroke-width="2" stroke-linecap="round" stroke-linejoin="round"/>
<path d="M95.8719 79.7512V77.6543H103.065V80.3127L99.0593 89.1079L96.8768 88.495L100.711 80.2956V79.7496H95.8704L95.8719 79.7512Z" fill="#2B2B2B" stroke="black" stroke-width="2" stroke-linecap="round" stroke-linejoin="round"/>
<path d="M70.1647 71.1065C68.8705 72.0399 68.4053 72.6979 67.9527 74.227C67.0193 72.9328 66.3613 72.4676 64.8322 72.015C66.1264 71.0816 66.5916 70.4236 67.0442 68.8945C67.9776 70.1888 68.6356 70.6539 70.1647 71.1065Z" fill="#FDBE3E"/>
<path d="M75.8098 66.6897C73.9058 67.3539 73.1047 67.9823 72.0049 69.6732C71.3407 67.7692 70.7123 66.9681 69.0214 65.8683C70.9254 65.2041 71.7265 64.5757 72.8262 62.8848C73.4905 64.7888 74.1189 65.5899 75.8098 66.6897Z" fill="#FDBE3E"/>
<defs>
<linearGradient id="paint0_linear_1182_12357" x1="83.5001" y1="24" x2="83.5001" y2="145" gradientUnits="userSpaceOnUse">
<stop stop-color="#FA6E68" stop-opacity="0.5"/>
<stop offset="1" stop-color="white" stop-opacity="0"/>
</linearGradient>
</defs>
</svg>
