<svg width="169" height="168" viewBox="0 0 169 168" fill="none" xmlns="http://www.w3.org/2000/svg">
<circle cx="83.8334" cy="84.5" r="60.5" fill="url(#paint0_linear_1182_12294)"/>
<path d="M92.9755 124C86.6152 124 80.7575 119.477 76.3642 115.538C65.7004 105.976 51.5353 85.6783 48.5382 72.8228C47.3417 67.6906 46.6344 57.6875 51.5686 52.755C53.4557 50.8679 55.9403 49.9127 58.954 49.9127C60.3303 49.9127 61.828 50.1207 63.4056 50.5301C68.9189 51.9629 74.4505 56.4045 79.8456 63.73C82.5848 67.451 85.3322 71.9924 87.8967 77.0281C88.2877 69.2849 89.7156 62.8663 92.2783 57.1816C96.1658 48.5581 101.815 44 108.615 44C109.078 44 109.552 44.0216 110.023 44.0649C112.799 44.3178 116.114 45.6175 117.601 47.6694C117.796 47.7626 117.991 47.8907 118.174 48.0638C119.494 49.3086 120.83 53.2925 121.016 54.053C122.612 60.5532 121.785 69.9921 118.488 82.9108C113.466 102.594 107.954 114.909 101.636 120.56C99.0829 122.843 96.169 124 92.9755 124Z" fill="#2B2B2B"/>
<path d="M119.299 54.3417C119.014 53.1835 117.731 49.8436 116.856 49.0182C116.709 48.88 116.598 48.8701 116.387 48.8917C115.45 46.963 112.22 45.7232 109.83 45.5052C101.346 44.7314 96.4204 52.1451 93.9209 57.6883C90.1466 66.0606 89.3578 75.2034 89.5675 84.0898C88.7004 83.4874 88.5474 82.2693 88.1364 81.3939C84.006 72.5674 74.5786 54.9508 62.8781 51.9121C48.1421 48.0829 48.5482 65.2119 50.2589 72.5507C53.1845 85.1016 67.1499 105.141 77.6523 114.558C83.4635 119.769 92.5562 126.549 100.349 119.579C108.732 112.082 114.198 92.7084 116.774 82.6137C118.883 74.3496 121.321 62.5792 119.299 54.3417Z" fill="#2B2B2B"/>
<path d="M116.387 48.8922H116.157C115.987 48.6642 114.503 47.5908 114.172 47.4095C112.747 46.6356 108.406 45.5273 106.91 46.2429C106.665 46.2129 106.72 46.6356 106.761 46.7155C106.901 46.9768 109.554 47.6058 110.173 47.8738C114.029 49.5362 115.049 52.9993 115.823 56.2677C116.846 60.5911 116.933 64.9561 116.388 69.3311C116.971 69.416 116.801 69.2579 116.949 68.9534C117.222 68.3892 117.387 67.5671 117.53 66.9547C117.612 66.6069 117.26 66.1959 117.993 66.3041C117.037 75.0857 113.531 85.405 110.135 93.7839C109.768 94.6876 107.821 99.447 107.339 99.8014C106.823 100.181 104.758 99.9362 103.901 99.9895C100.539 100.204 95.1358 100.717 92.4449 102.452C90.8739 103.466 90.0336 105.058 88.7755 106.235C87.6755 107.263 84.0309 109.946 82.3668 109.651C82.0839 109.602 82.5931 109.319 81.7827 109.071C81.0422 108.844 80.9606 109.119 80.3482 109.041C78.8222 108.848 79.9023 107.508 79.7193 107.368C78.7141 107.388 77.7439 107.545 77.238 106.666L77.6573 104.907C77.0116 104.9 75.622 105.052 75.4606 104.35C75.1228 102.88 80.0953 102.011 80.1951 101.211L79.9556 100.64C77.9686 100.256 75.7253 98.1024 77.1964 96.4798C78.5993 94.9355 79.3464 97.3951 80.2999 98.0857C83.3436 100.296 88.1513 99.3555 91.4147 97.9992C93.1853 97.2636 95.4552 95.4913 96.9746 95.0204C98.4939 94.5494 100.584 94.4779 102.232 94.0618C103.889 93.6441 108.878 92.0416 109.248 90.5705C109.441 89.8 108.818 89.5021 108.837 89.0994C108.848 88.8498 109.214 88.6268 109.276 88.3339C109.624 86.718 108.575 86.7996 108.404 86.2238C108.271 85.7728 108.861 85.2053 108.424 84.3217C108.054 83.5761 107.078 83.5345 106.823 83.2799C106.515 82.9704 106.72 82.145 106.211 81.6091C104.535 79.8435 100.945 82.6026 100.579 82.3813C100.288 80.2395 97.9432 78.4489 95.2456 79.0214C92.6695 79.5689 94.4535 81.2813 94.8978 82.2448C96.4588 85.6297 93.8045 87.6366 90.7026 89.2725C83.1241 93.2697 73.0428 93.8938 64.2561 94.3081L63.4505 94.7791C63.3124 95.2051 63.86 95.0171 63.9066 95.0603C63.9415 95.0936 63.8883 95.3249 63.9066 95.4381C63.9548 95.7426 63.9615 96.1803 64.1745 96.5464L64.5956 96.573C64.6256 96.6263 64.5657 96.7128 64.5956 96.7627C64.6755 96.8925 64.7354 97.0074 64.8252 97.1405C68.7709 103.043 74.9198 110.327 80.6394 115.118C79.8207 115.479 78.6891 114.457 77.6607 114.551C67.1583 105.135 53.1929 85.0938 50.2673 72.5429C48.5566 65.2041 48.1522 48.0751 62.8865 51.9043C74.587 54.9447 84.016 72.5612 88.1448 81.3861C88.5541 82.2615 88.7088 83.4796 89.5759 84.082C89.3662 75.1955 90.155 66.0528 93.9293 57.6805C96.4271 52.1373 101.355 44.7235 109.838 45.4974C112.228 45.7154 115.458 46.9552 116.395 48.8839L116.387 48.8922ZM56.794 84.0903C56.373 82.1699 55.5725 80.3227 55.0749 78.4156C53.4158 72.0653 51.1377 59.9337 57.5929 55.1327C58.4383 54.5037 61.6767 53.2506 60.3604 52.2887C58.8144 51.1571 55.05 52.6299 53.8185 53.7199C47.6213 59.2132 52.4207 74.5282 55.1266 81.0233C55.5327 81.9985 55.9919 83.3664 56.794 84.092V84.0903ZM56.9105 84.2801V84.4698C57.0586 84.4065 57.0586 84.3433 56.9105 84.2801Z" fill="#D42129"/>
<path d="M116.387 48.8916C116.598 48.87 116.709 48.88 116.856 49.0181C117.731 49.8435 119.014 53.1834 119.299 54.3416C121.321 62.5791 118.883 74.3496 116.775 82.6136C114.198 92.7083 108.732 112.082 100.349 119.579C92.5563 126.549 83.4652 119.77 77.6524 114.558C78.6808 114.465 79.8123 115.487 80.6311 115.126C81.0804 115.502 81.7578 115.893 82.2354 116.261C93.3119 124.809 98.5622 121.034 104.205 111.218C106.041 108.027 107.492 104.67 109.005 101.368C108.697 100.267 107.424 100.911 106.758 100.932C102.819 101.064 95.0808 101.555 92.3133 104.051C90.8173 105.402 89.8853 106.8 88.0848 108.128C86.84 109.047 82.3684 112.315 81.776 109.448C81.751 109.331 81.7926 109.192 81.776 109.07C82.5864 109.318 82.0773 109.601 82.3602 109.651C84.0244 109.944 87.6688 107.263 88.7688 106.234C90.0269 105.058 90.8689 103.465 92.4382 102.452C95.1291 100.716 100.532 100.204 103.894 99.9889C104.751 99.934 106.816 100.179 107.332 99.8008C107.815 99.4464 109.762 94.6853 110.128 93.7833C113.526 85.4044 117.031 75.0851 117.986 66.3035C118.013 66.0538 117.963 65.7959 117.986 65.5463C118.021 65.1735 117.978 64.9222 117.986 64.7891C118.269 60.6837 118.8 52.4512 116.152 48.8933H116.382L116.387 48.8916Z" fill="#870307"/>
<path d="M63.9015 95.0682C66.5624 94.5806 69.3017 94.7271 72.0093 94.4758C74.6369 94.2312 77.8286 93.7619 80.4114 93.276C85.9646 92.2342 98.9299 88.6097 95.5051 82.1263C95.0758 81.3125 93.7578 80.6884 94.8578 79.8447C97.2675 77.9975 100.464 81.662 99.8868 83.7122L103.258 81.8617C105.475 81.186 106.349 81.8467 105.615 83.7122C107.675 83.6406 108.507 84.942 107.244 86.2733C107.262 86.4447 108.988 86.9223 108.557 88.1205C108.436 88.4583 107.77 88.6946 107.733 88.9159C107.702 89.109 108.207 89.3819 108.367 89.7713L106.149 91.2524C103.17 93.0513 98.94 92.9631 95.8347 94.0897C90.6259 95.9802 89.6191 98.4614 82.6979 98.4764C82.5482 98.4764 82.3884 98.488 82.2403 98.4764L82.1256 98.2917L82.0107 98.4764C81.5763 98.4115 80.2533 97.4113 79.9454 97.0585C79.4096 96.4461 79.4013 95.4643 78.2298 95.4277C74.5637 96.7324 76.5091 100.082 79.4896 101.029C78.2748 101.806 76.0747 102.259 75.2709 103.412C74.5304 104.474 75.5022 105.592 76.97 105.479C76.2544 106.975 76.9651 108.198 79.0336 107.935C78.7474 109.566 80.1019 109.962 81.7827 109.451C82.3768 112.319 86.8467 109.05 88.0914 108.132C89.8937 106.804 90.824 105.404 92.32 104.055C95.0858 101.558 102.826 101.067 106.765 100.936C103.39 107.769 98.9415 119.12 87.6504 117.759C85.7915 117.534 83.9576 116.853 82.2419 116.264C81.7643 115.897 81.0871 115.505 80.6378 115.129C74.9181 110.338 68.7691 103.054 64.8234 97.1517L64.5938 96.774C64.5638 96.7241 64.6238 96.6375 64.5938 96.5843C64.3775 96.1949 64.1844 95.8121 63.9065 95.4493C63.8882 95.3345 63.9415 95.1032 63.9065 95.0716L63.9015 95.0682Z" fill="#FBFBFA"/>
<path d="M56.7939 84.0916C55.9918 83.3677 55.5325 81.9997 55.1265 81.0229C52.4206 74.5278 47.6228 59.2144 53.8184 53.7194C55.0499 52.6278 58.8126 51.1567 60.3602 52.2883C61.6766 53.2501 58.4382 54.5032 57.5928 55.1323C51.1376 59.9333 53.4157 72.0665 55.0748 78.4152C55.5724 80.3223 56.3728 82.1695 56.7939 84.0899V84.0916Z" fill="#FD5653"/>
<path d="M63.9015 95.0668C63.8549 95.0235 63.3075 95.2132 63.4456 94.7855L64.251 94.3146C73.0377 93.9002 83.119 93.2762 90.6975 89.2789C93.7994 87.6431 96.4537 85.6361 94.8927 82.2512C94.4484 81.2877 92.6661 79.5753 95.2405 79.0278C97.9381 78.4554 100.283 80.246 100.574 82.3877C100.94 82.609 104.53 79.8499 106.205 81.6155C106.713 82.1514 106.508 82.9785 106.818 83.2863C107.073 83.541 108.049 83.5826 108.419 84.3281C108.857 85.2118 108.266 85.7792 108.399 86.2302C108.57 86.806 109.617 86.7228 109.271 88.3403C109.208 88.6332 108.841 88.8545 108.832 89.1058C108.813 89.5085 109.436 89.8048 109.243 90.5769C108.873 92.0497 103.886 93.6506 102.227 94.0683C100.577 94.4843 98.4323 94.5725 96.9695 95.0268C95.5067 95.4811 93.1804 97.2701 91.4098 98.0056C88.1464 99.3619 83.337 100.3 80.295 98.0922C79.3431 97.3999 78.5942 94.942 77.1913 96.4863C75.7202 98.1071 77.9635 100.261 79.9505 100.647L80.1902 101.217C80.0903 102.016 75.1179 102.887 75.4557 104.356C75.6171 105.058 77.0067 104.907 77.6524 104.913L77.2329 106.672C77.7405 107.551 78.7107 107.395 79.7142 107.375C79.8972 107.515 78.8172 108.854 80.3433 109.047C80.9557 109.125 81.0372 108.849 81.7778 109.077C81.7944 109.199 81.7528 109.338 81.7778 109.455C80.0987 109.966 78.744 109.571 79.0285 107.939C76.96 108.202 76.2494 106.979 76.9649 105.483C75.4972 105.596 74.527 104.477 75.2659 103.416C76.0696 102.262 78.2697 101.81 79.4845 101.033C76.5041 100.086 74.5586 96.7359 78.2247 95.4312C79.398 95.4678 79.4064 96.4497 79.9406 97.0621C80.2484 97.4132 81.5729 98.4133 82.0056 98.4799C82.0822 98.4849 82.1589 98.4732 82.2354 98.4799C82.3835 98.4916 82.5433 98.4799 82.693 98.4799C86.3924 99.6847 89.9802 98.1321 93.0771 96.5512C94.1206 96.0186 95.367 94.9653 96.4454 94.6008C99.9085 93.4276 103.323 93.6938 107.141 91.6986C108.286 91.0995 108.853 90.9713 108.364 89.7748C108.204 89.3854 107.698 89.1125 107.73 88.9194C107.766 88.6981 108.432 88.4618 108.554 88.124C108.985 86.9275 107.261 86.4499 107.241 86.2768C108.502 84.9455 107.672 83.6458 105.611 83.7157C106.345 81.8502 105.472 81.1895 103.255 81.8652L99.8835 83.7157C100.461 81.6638 97.2641 78.001 94.8544 79.8482C93.7544 80.692 95.0725 81.316 95.5018 82.1298C98.9266 88.6132 85.9613 92.2377 80.4081 93.2795C77.8254 93.7637 74.6335 94.2347 72.0058 94.4793C69.2983 94.7306 66.5592 94.5842 63.8982 95.0718L63.9015 95.0668Z" fill="#B53233"/>
<path d="M64.5889 96.5803L64.1678 96.5536C63.9548 96.1858 63.9481 95.7498 63.8998 95.4453C64.1778 95.8098 64.3708 96.1908 64.5871 96.5803H64.5889Z" fill="#B53233"/>
<path d="M64.8185 97.1492C64.7286 97.0145 64.6704 96.9013 64.5889 96.7715L64.8185 97.1492Z" fill="#B53233"/>
<path d="M56.9105 84.2793C57.0586 84.3425 57.0586 84.4058 56.9105 84.469V84.2793Z" fill="#F26564"/>
<path d="M82.237 116.264C83.9527 116.853 85.7882 117.535 87.6454 117.758C98.9366 119.119 103.385 107.766 106.76 100.935C107.425 100.914 108.698 100.269 109.006 101.371C107.493 104.674 106.041 108.031 104.207 111.221C98.5637 121.035 93.3118 124.812 82.237 116.264Z" fill="#BCBABA"/>
<path d="M117.991 65.5462C117.678 65.3133 117.673 65.0287 117.991 64.7891C117.983 64.9222 118.026 65.1735 117.991 65.5462Z" fill="#EA2726"/>
<path d="M108.366 89.7695C108.855 90.966 108.287 91.0958 107.142 91.6933C103.325 93.6886 99.9101 93.4223 96.447 94.5955C95.3703 94.96 94.1238 96.0134 93.0788 96.5459C89.9818 98.1268 86.394 99.6795 82.6946 98.4746C89.6158 98.4596 90.6242 95.9784 95.8312 94.088C98.9382 92.9613 103.167 93.0495 106.146 91.2506L108.364 89.7695H108.366Z" fill="#BCBABA"/>
<path d="M82.237 98.4738C82.1621 98.4671 82.0839 98.4788 82.0074 98.4738L82.1221 98.2891L82.237 98.4738Z" fill="#BCBABA"/>
<path d="M114.606 77.5348C115.452 76.7293 115.811 75.3215 116.159 74.308C118.477 67.5649 122.093 51.8338 114.102 47.0278C112.514 46.0726 107.906 45.0076 106.242 46.2973C104.826 47.3923 108.788 48.2959 109.862 48.8317C118.064 52.9222 116.988 65.2235 115.876 71.7119C115.543 73.6606 114.847 75.5811 114.606 77.5348Z" fill="#FD5653"/>
<path d="M64.1994 69.1466C62.8747 70.1002 62.3972 70.7708 61.933 72.3334C60.9761 71.0121 60.3036 70.5362 58.736 70.0735C60.0606 69.12 60.5383 68.4493 61.0026 66.8867C61.9594 68.208 62.6317 68.684 64.1994 69.1466Z" fill="#FDBE3E"/>
<path d="M69.984 64.6338C68.0336 65.3128 67.2114 65.9551 66.0848 67.6808C65.4042 65.7371 64.7601 64.9184 63.0278 63.7951C64.9781 63.1161 65.8003 62.4738 66.927 60.748C67.6076 62.6918 68.2516 63.5105 69.984 64.6338Z" fill="#FDBE3E"/>
<path d="M85.2624 101.08L84.2023 103.676C84.8546 103.624 85.5286 103.403 86.1793 103.365C86.2225 103.363 86.2758 103.323 86.2891 103.403C86.2991 103.471 86.1759 103.912 86.1443 104.014C85.9529 104.641 85.6816 105.418 85.4037 106.019C85.3355 106.165 84.7681 107.287 84.6383 107.259L84.4153 105.137L82.7128 105.405C82.5797 103.716 83.7231 102.135 85.2658 101.078L85.2624 101.08Z" fill="#E5E4E3"/>
<defs>
<linearGradient id="paint0_linear_1182_12294" x1="83.8334" y1="24" x2="83.8334" y2="145" gradientUnits="userSpaceOnUse">
<stop stop-color="#FA6E68" stop-opacity="0.5"/>
<stop offset="1" stop-color="white" stop-opacity="0"/>
</linearGradient>
</defs>
</svg>
