<svg width="21" height="21" viewBox="0 0 21 21" fill="none" xmlns="http://www.w3.org/2000/svg">
<path fill-rule="evenodd" clip-rule="evenodd" d="M11.2491 2.25C7.10693 2.25 3.74906 5.60786 3.74906 9.75C3.74906 10.88 3.9983 11.949 4.44386 12.9075C4.67593 13.4067 4.72428 14.0131 4.48944 14.5764L3.10715 17.8919L6.42267 16.5096C6.98596 16.2748 7.59236 16.3231 8.09156 16.5552C9.05001 17.0008 10.1191 17.25 11.2491 17.25C15.3912 17.25 18.7491 13.8921 18.7491 9.75C18.7491 5.60786 15.3912 2.25 11.2491 2.25ZM1.74906 9.75C1.74906 4.50329 6.00236 0.25 11.2491 0.25C16.4958 0.25 20.7491 4.50329 20.7491 9.75C20.7491 14.9967 16.4958 19.25 11.2491 19.25C9.82187 19.25 8.4656 18.9346 7.24846 18.3688C7.22758 18.3591 7.21036 18.3561 7.19999 18.3557C7.19522 18.3555 7.19245 18.3558 7.19131 18.356L2.75532 20.2054C1.51879 20.721 0.278088 19.4803 0.793613 18.2437L2.64304 13.8078C2.64324 13.8066 2.64358 13.8038 2.64339 13.7991C2.64297 13.7887 2.63996 13.7715 2.63025 13.7506C2.06444 12.5335 1.74906 11.1772 1.74906 9.75Z" fill="white"/>
</svg>
