<svg width="64" height="64" viewBox="0 0 64 64" fill="none" xmlns="http://www.w3.org/2000/svg">
<rect width="64" height="64" rx="32" fill="#FFE5E6"/>
<path fill-rule="evenodd" clip-rule="evenodd" d="M19.9071 20.0755C18.8394 20.3148 17.9211 21.0271 17.4341 21.9936C17.2568 22.3454 17.0169 23.0934 17.0678 23.1355C17.0821 23.1472 20.4493 25.3305 24.5504 27.9871L32.0071 32.8174L39.4611 27.9883C43.5608 25.3323 46.9268 23.149 46.941 23.1366C46.9916 23.0925 46.7526 22.3464 46.5748 21.9936C46.1596 21.1696 45.4117 20.5155 44.5067 20.1846L44.0392 20.0137L32.1607 20.0026C22.4171 19.9934 20.2148 20.0065 19.9071 20.0755ZM17.0011 33.08C17.0023 41.4276 16.9907 41.1577 17.3804 41.9525C17.8045 42.8177 18.6781 43.5735 19.5836 43.8587L20.0321 44H32.0044H43.9767L44.4456 43.8464C45.3735 43.5424 46.2185 42.7997 46.6407 41.917C47.0213 41.1215 47.0109 41.3827 46.9935 33.078L46.9776 25.5009L39.6644 30.2413L32.3512 34.9817H32.0059H31.6606L24.471 30.3216C20.5167 27.7586 17.2181 25.6205 17.1407 25.5704L17 25.4792L17.0011 33.08Z" fill="#D73350"/>
</svg>
