<svg width="64" height="64" viewBox="0 0 64 64" fill="none" xmlns="http://www.w3.org/2000/svg">
<rect width="64" height="64" rx="32" fill="#FFE5E6"/>
<path d="M32.5 19C29.7162 19.0032 27.0474 20.0804 25.079 21.9952C23.1106 23.9101 22.0033 26.5063 22 29.2143C22 37.9541 31.5455 44.5557 31.9519 44.8322C32.1126 44.9414 32.3039 45 32.5 45C32.6961 45 32.8874 44.9414 33.0481 44.8322C33.4545 44.5557 43 37.9541 43 29.2143C42.9967 26.5063 41.8894 23.9101 39.921 21.9952C37.9526 20.0804 35.2838 19.0032 32.5 19ZM32.5007 25.5003C33.2559 25.5003 33.9941 25.7182 34.622 26.1263C35.2499 26.5344 35.7393 27.1145 36.0282 27.7932C36.3172 28.4719 36.3928 29.2187 36.2455 29.9392C36.0982 30.6597 35.7345 31.3216 35.2006 31.841C34.6666 32.3605 33.9862 32.7142 33.2456 32.8575C32.5049 33.0009 31.7372 32.9273 31.0395 32.6462C30.3419 32.365 29.7455 31.889 29.326 31.2782C28.9064 30.6674 28.6825 29.9492 28.6825 29.2146C28.6825 28.7269 28.7813 28.2439 28.9731 27.7932C29.165 27.3426 29.4463 26.9331 29.8008 26.5882C30.1554 26.2433 30.5763 25.9697 31.0395 25.783C31.5028 25.5964 31.9993 25.5003 32.5007 25.5003Z" fill="#D73350"/>
</svg>
