<svg width="64" height="65" viewBox="0 0 64 65" fill="none" xmlns="http://www.w3.org/2000/svg">
<rect y="0.5" width="64" height="64" rx="32" fill="#FFE5E6"/>
<path fill-rule="evenodd" clip-rule="evenodd" d="M31.1379 17.5657C29.2329 17.749 27.5462 18.232 25.8252 19.0867C24.3034 19.8426 23.1858 20.6451 21.9301 21.8835C20.724 23.073 19.8571 24.2739 19.0831 25.827C17.2494 29.5065 16.9997 33.6818 18.3808 37.5718C18.8932 39.0151 19.9199 40.8344 20.8626 41.9696C22.2718 43.6665 23.8968 44.9603 25.8252 45.9204C28.1136 47.0598 30.5448 47.5885 33.0332 47.4879C35.2679 47.3976 37.2085 46.9036 39.1856 45.9215C41.5653 44.7396 43.5437 42.9929 45.0227 40.7681C45.532 40.002 46.2948 38.4972 46.608 37.6409C47.6332 34.8377 47.7813 31.6123 47.0181 28.7125C46.7313 27.6231 46.4773 26.9527 45.9337 25.8519C45.1727 24.3109 44.3703 23.1892 43.1309 21.9337C40.0151 18.7773 35.5281 17.1431 31.1379 17.5657ZM27.327 24.7118C27.5147 24.7817 30.3578 27.585 30.4863 27.8271C30.6884 28.2075 30.6472 28.2774 29.5817 29.3601C29.0379 29.9128 28.5494 30.4502 28.496 30.5544C28.2725 30.9905 28.319 31.5155 28.6206 31.9641C29.5997 33.4203 32.1784 35.91 33.3669 36.5467C33.6383 36.6922 34.1719 36.7055 34.4863 36.5748C34.6201 36.519 35.0776 36.1137 35.6718 35.5242C36.6538 34.55 36.8053 34.4456 37.123 34.5239C37.3242 34.5734 40.2024 37.4236 40.3366 37.7061C40.5164 38.0849 40.3171 38.401 39.3849 39.2156C38.3894 40.0855 37.2812 40.4553 36.1382 40.2989C34.6086 40.0895 32.0961 38.8432 30.2773 37.3916C29.5967 36.8484 27.9289 35.1763 27.3901 34.4969C26.1756 32.9653 25.1163 31.0163 24.7316 29.6053C24.4834 28.6953 24.5889 27.7427 25.04 26.819C25.2846 26.3181 25.3882 26.1846 26.0718 25.4888C26.4898 25.0634 26.888 24.7044 26.9567 24.6909C27.0253 24.6774 27.0996 24.6628 27.1217 24.6584C27.1438 24.654 27.2362 24.678 27.327 24.7118Z" fill="#D73350"/>
<path d="M19.8 38.5L17.5 47L27 45L19.8 38.5Z" fill="#D73350"/>
</svg>
